<?xml version="1.0" encoding="utf-8"?>
<!-- Generator: Adobe Illustrator 25.2.2, SVG Export Plug-In . SVG Version: 6.00 Build 0)  -->
<svg version="1.1" id="Layer_1" xmlns="http://www.w3.org/2000/svg" xmlns:xlink="http://www.w3.org/1999/xlink" x="0px" y="0px"
	 viewBox="0 0 813.2 214.8" style="enable-background:new 0 0 813.2 214.8;" xml:space="preserve">
<style type="text/css">
	.st0{fill:#34AFC8;}
	.st1{fill:#FFFFFF;}
	.st2{fill:none;stroke:#FFFFFF;stroke-width:1.5608;stroke-linecap:round;stroke-linejoin:round;stroke-miterlimit:10;}
	.st3{fill:none;stroke:#FFFFFF;stroke-width:1.5608;stroke-linejoin:round;stroke-miterlimit:10;}
	.st4{clip-path:url(#SVGID_2_);}
	.st5{clip-path:url(#SVGID_4_);fill:#44283B;}
	.st6{clip-path:url(#SVGID_4_);fill:none;stroke:#FFFFFF;stroke-width:1.5608;stroke-linejoin:round;stroke-miterlimit:10;}
	.st7{clip-path:url(#SVGID_6_);}
	.st8{clip-path:url(#SVGID_8_);fill:#44283B;}
	.st9{clip-path:url(#SVGID_8_);fill:none;stroke:#FFFFFF;stroke-width:1.5608;stroke-linejoin:round;stroke-miterlimit:10;}
	.st10{fill:#44283B;}
</style>
<g>
	<g>
		<path class="st0" d="M123,66.6c-6.9-7.9-13.7-15.9-20.6-23.8c-7.6,7.9-15.2,15.7-22.9,23.6c2.6,0.2,5.3,0.3,7.9,0.5
			c-0.4,11.8-1,34.7-1,34.7l28.7,73.7c0,0-0.4-98.1-0.4-108.5"/>
		<path class="st1" d="M82.8,90.6c-0.2-0.5-0.6-0.8-1.2-0.8H54c-0.5,0-1,0.3-1.2,0.8l-39.8,98.3c-0.2,0.4-0.1,0.8,0.1,1.2
			c0.2,0.3,0.6,0.5,1,0.5h28.9c0.5,0,1-0.3,1.2-0.8l6.9-19.3h31.9l6.6,19.3c0.2,0.5,0.6,0.8,1.2,0.8h30.4c0.4,0,0.8-0.2,1-0.5
			c0.2-0.3,0.3-0.8,0.1-1.2L82.8,90.6z M91.9,188.1l-6.6-19.3c-0.2-0.5-0.6-0.8-1.2-0.8H50.4c-0.5,0-1,0.3-1.2,0.8l-6.9,19.3H16.1
			l38.8-95.8h25.9l38.8,95.8H91.9z"/>
		<path class="st1" d="M74.8,138.8c-2.2-6.3-3.9-11.7-6-18.3c-0.2-0.5-0.6-0.9-1.2-0.9h-0.3c-0.5,0-1,0.4-1.2,0.9
			c-1.9,6.2-3.8,11.9-6.1,18.3l-3.4,9.4c-0.1,0.4-0.1,0.8,0.2,1.1c0.2,0.3,0.6,0.5,1,0.5h19c0.4,0,0.8-0.2,1-0.5
			c0.2-0.3,0.3-0.7,0.2-1.1L74.8,138.8z M59.6,147.4l2.8-7.7c1.9-5.3,3.5-10,5.1-15c1.6,5.2,3.1,9.8,4.9,15l2.7,7.7H59.6z"/>
		<path class="st1" d="M481.8,90.3c-0.2-0.3-0.6-0.5-1-0.5h-28.2c-0.6,0-1,0.4-1.2,0.9l-9.8,34.2c-2.1,7.5-4.2,14.9-6.1,22.1
			c-1.9-7.3-4-14.7-6-21.7l-9.9-34.6c-0.2-0.5-0.6-0.9-1.2-0.9h-20.5c-0.6,0-1,0.4-1.2,0.9l-10.2,34.8c-1,3.3-1.9,6.6-2.9,10.1
			l2.4,0.7c1-3.4,1.9-6.8,2.9-10l9.9-33.9h18.6l9.7,33.7c2.3,8.2,4.8,17,7.1,25.6c0.1,0.6,0.6,0.9,1.2,0.9h0.3
			c0.6,0,1.1-0.4,1.2-0.9c2.2-8.4,4.6-17.1,7.2-26l9.5-33.3h25.6l-29.2,95.8h-27.7l-6.5-22.9c-2.4-8.6-4.7-17-6.9-25.5
			c-0.1-0.6-0.6-0.9-1.2-0.9h-0.3c-0.6,0-1.1,0.4-1.2,0.9c-2.4,8.9-4.8,17.7-7.2,25.9l-6.5,22.5h-27.1l-5.2-17.2
			c-0.6,0.5-1.2,1-1.8,1.5c-0.1,0.1-0.2,0.1-0.3,0.1l5.2,17.2c0.2,0.5,0.6,0.9,1.2,0.9h28.9c0.6,0,1-0.4,1.2-0.9l6.8-23.4
			c2-7,4.1-14.4,6.1-21.9c1.9,7.2,3.9,14.3,5.9,21.5l6.8,23.8c0.2,0.5,0.6,0.9,1.2,0.9h29.6c0.5,0,1-0.4,1.2-0.9l30-98.3
			C482.1,91,482,90.6,481.8,90.3"/>
		<path class="st1" d="M365.2,90.7c-0.1-0.5-0.6-0.9-1.2-0.9h-29.3c-0.4,0-0.8,0.2-1,0.5c-0.2,0.3-0.3,0.7-0.2,1.1l21.7,72.1
			l0.2-0.2c0.2-0.3,0.4-0.6,0.6-0.9c0.3-0.5,0.7-0.9,1.1-1.3l-20.7-68.7h26.7l9.3,34l2.4-0.7L365.2,90.7z"/>
		<path class="st1" d="M243.7,89.8h-26.9c-0.7,0-1.2,0.6-1.2,1.2v31.5c0,7.2,0.1,14.4,0.2,21.5c-4.3-6.2-8.5-12-13-18.1l-26.1-35.6
			c-0.2-0.3-0.6-0.5-1-0.5h-26.2c-0.7,0-1.2,0.6-1.2,1.2v98.3c0,0.7,0.6,1.2,1.2,1.2h26.9c0.7,0,1.2-0.6,1.2-1.2v-31.5
			c0-7.2-0.1-14.4-0.2-21.5c4.3,6.2,8.5,12,13,18.1l26.1,35.6c0.2,0.3,0.6,0.5,1,0.5h26.2c0.7,0,1.2-0.6,1.2-1.2V91
			C245,90.3,244.4,89.8,243.7,89.8 M242.5,188.1h-24.3L192.4,153c-5.2-7-10-13.7-15-21c-0.4-0.5-1-0.7-1.6-0.4l-0.3,0.1
			c-0.4,0.2-0.7,0.7-0.7,1.1c0.1,8.2,0.3,16.6,0.3,25v30.3h-24.4V92.3h24.3l25.7,35.1c5.2,7,10,13.7,15,21c0.4,0.5,1,0.7,1.6,0.4
			l0.3-0.1c0.4-0.2,0.7-0.7,0.7-1.1c-0.1-8.2-0.3-16.6-0.3-25V92.3h24.4V188.1z"/>
		<path class="st1" d="M325.7,164.5h-36.5v-13.8h29.3c0.7,0,1.2-0.6,1.2-1.2v-22.3c0-0.7-0.6-1.2-1.2-1.2h-29.3v-10h34.9
			c0.7,0,1.2-0.6,1.2-1.2V91c0-0.7-0.6-1.2-1.2-1.2H260c-0.7,0-1.2,0.6-1.2,1.2v98.3c0,0.7,0.6,1.2,1.2,1.2h65.7
			c0.7,0,1.2-0.6,1.2-1.2v-23.6C327,165,326.4,164.5,325.7,164.5 M324.5,188.1h-63.2V92.3h61.6v21.1H288c-0.7,0-1.2,0.6-1.2,1.2
			v12.5c0,0.7,0.6,1.2,1.2,1.2h29.3v19.8H288c-0.7,0-1.2,0.6-1.2,1.2v16.3c0,0.7,0.6,1.2,1.2,1.2h36.5V188.1z"/>
		<path class="st2" d="M245.9,72.6c0-2.3,0-4.7,0-7c0-7,0-25.6,0-25.6s-2.6,0-5.7,0.2c-2.9,0.2-5.7,0.4-8.6,0.6
			c-1.4,0.1-16.6-0.3-16.6-0.2c0.5,16.1,0,32.4-0.1,48.5c8.8,0.2,23.2,0.2,30.9-0.6c0-2.7,0.1-5.3,0.1-8"/>
		<path class="st2" d="M241,57.3c-6.9-0.7-13.9-0.4-20.8-0.3"/>
		<path class="st2" d="M241.4,71c-7.1,0-14.6,0.2-21.7,1.3"/>
		<path class="st2" d="M235.9,46.4c0.2,12.2,0.4,24.3,0.4,36.5"/>
		<path class="st2" d="M225.4,46.4c-0.1,12,0.2,25.7,0.7,37.6"/>
		<path class="st3" d="M253.2,64.3c-1.2,5.6-4.4,9-4.9,8.9c-0.5-0.1-4.5-1.2-4.8-0.8c-1,1.3-2.1,2.5-2.1,2.5c0,0.5,0.5,1.3,1.3,1.1
			c0.3-0.1,0.6-0.2,0.8-0.4c-0.4,1-0.6,2.3-0.4,3.9c0,0,2.5,1.3,4.4,0.5c1.1,0,2.2-2.6,2.5-3.6c0-0.1,0-0.1,0-0.1
			c2.5,0,8-4.5,10.3-8.1"/>
		<path class="st3" d="M259.1,33.8c-0.1,0-0.2,0-0.2,0c-3.8,4.4-3.5,23-4.9,28c0,0-0.1,0-0.1,0c-1.5,0.1-2.6,1.8-0.7,3.5
			c1.9,1.7,6.5,3.4,8.1,2.4c1.2-0.8,0.8-2.1,0.4-2.8c1.8-5.9,2.9-9.2,3.5-12.2c1,1.8,2,3.4,2.8,4.6"/>
		<path class="st3" d="M268,27.5c-0.9,0.2-1.5,0.4-1.5,0.4"/>
		<path class="st3" d="M286.4,44.6c-1.2-1.9-2.5-3.9-3.7-5.9c1.5,0.4,3.4,1.2,4.5,2l-1.1,1.5c-0.2,0.3-0.2,0.8,0.1,1l9.3,7.2
			c0.3,0.2,0.8,0.2,1-0.1l1.2-1.5c0.2-0.3,0.2-0.8-0.1-1l-0.1-0.1c2.2-2.7,4.6-6.7-1.4-13.1c-6.6-7-16.8-10.9-21.3-8.5
			c0,0-1.7,0.3-3.6,0.8"/>
		<g>
			<g>
				<defs>
					<rect id="SVGID_1_" x="271.7" y="54.1" width="4.8" height="4.5"/>
				</defs>
				<clipPath id="SVGID_2_">
					<use xlink:href="#SVGID_1_"  style="overflow:visible;"/>
				</clipPath>
				<g class="st4">
					<defs>
						<rect id="SVGID_3_" x="271.7" y="54.1" width="4.8" height="4.5"/>
					</defs>
					<clipPath id="SVGID_4_">
						<use xlink:href="#SVGID_3_"  style="overflow:visible;"/>
					</clipPath>
					<path class="st5" d="M273.4,57.3c-0.4,0.3-0.7,0.5-1,0.8c0,0-0.1,0-0.1,0c0,0,0-0.1,0-0.1c0.3-0.2,0.7-0.5,1-0.8
						c1.5-1.2,2.7-2.6,2.7-2.6c0,0,0,0,0,0c0,0,0.1,0,0.1,0c0,0,0,0.1,0,0.1C276,54.8,274.9,56.1,273.4,57.3"/>
					<path class="st6" d="M273.4,57.3c-0.4,0.3-0.7,0.5-1,0.8c0,0-0.1,0-0.1,0c0,0,0-0.1,0-0.1c0.3-0.2,0.7-0.5,1-0.8
						c1.5-1.2,2.7-2.6,2.7-2.6c0,0,0,0,0,0c0,0,0.1,0,0.1,0c0,0,0,0.1,0,0.1C276,54.8,274.9,56.1,273.4,57.3z"/>
				</g>
			</g>
		</g>
		<g>
			<g>
				<defs>
					<rect id="SVGID_5_" x="272.9" y="56.2" width="4" height="2.6"/>
				</defs>
				<clipPath id="SVGID_6_">
					<use xlink:href="#SVGID_5_"  style="overflow:visible;"/>
				</clipPath>
				<g class="st7">
					<defs>
						<rect id="SVGID_7_" x="272.9" y="56.2" width="4" height="2.6"/>
					</defs>
					<clipPath id="SVGID_8_">
						<use xlink:href="#SVGID_7_"  style="overflow:visible;"/>
					</clipPath>
					<path class="st8" d="M276.3,56.8c0,0-1.2,0.8-2.8,1.5c0,0,0,0-0.1,0c0,0,0,0,0,0c0,0,0-0.1,0-0.1c0,0,0,0,0,0
						c1.6-0.6,2.8-1.4,2.8-1.4c0,0,0.1,0,0.1,0C276.4,56.7,276.3,56.8,276.3,56.8L276.3,56.8"/>
					<path class="st9" d="M276.3,56.8c0,0-1.2,0.8-2.8,1.5c0,0,0,0-0.1,0c0,0,0,0,0,0c0,0,0-0.1,0-0.1c0,0,0,0,0,0
						c1.6-0.6,2.8-1.4,2.8-1.4c0,0,0.1,0,0.1,0C276.4,56.7,276.3,56.8,276.3,56.8L276.3,56.8z"/>
				</g>
			</g>
		</g>
		<path class="st3" d="M316.9,83.5l1.7-0.3l1.5,2.2l1,1.4c0.4,0.5,0.1,1.3-0.5,1.5c-0.2,0.1-0.3,0.1-0.5,0.2c-0.7,0.3-1.7,0.7-1.4,1
			c0.3,0.3,1,0.3,1.2,0.3h1.8h2.3c1.4,0,2.4-1.5,1.8-2.8c-0.2-0.4-0.4-0.8-0.6-1.3c-0.5-1-0.9-2-1.4-3c-0.6-1.2-1.1-2.4-1.7-3.5
			c-0.5-1-0.9-2-1.4-2.9c-0.1-0.3-0.2-0.6-0.3-0.8c0-0.1-0.1-0.3-0.2-0.3c-0.5-0.2-1.3,0.5-1.6,0.8c-0.3,0.2-0.5,0.4-0.7,0.7
			c0,0-0.2,0.3-0.3,0.3l-0.3,0l-1.8,0.3"/>
		<path class="st3" d="M285.3,42.7c-8.9,0.4-12.5-7.5-13.9-14.1c-0.1-0.3-0.1-0.5-0.2-0.7c0-0.1,0-0.2-0.1-0.3
			c-0.1-0.3-0.1-0.6-0.2-0.9c0,0,0,0,0,0c-0.5,0-1,0.1-1.4,0.2c-0.5,0.1-0.9,0.2-1.3,0.4c0,0.2,0,0.4,0,0.6c0,0,0,0,0,0
			c0,0.3,0,0.6,0.1,0.9c0.2,1.2,0.6,2.9,1.2,4.7c0.2,0.7,0.5,1.4,0.7,2.1c0,0-4,2-7.9,4.3c0,0-1.6-3.5-1.8-7.2
			c-1.2,0.9-1.7,1.6-1.7,1.6c0,0.4,0,0.7,0,1.1c0,0.1,0,0.2,0,0.3c0,0.4,0.1,0.8,0.1,1.1c0,0,0,0,0,0.1c0.3,1.8,0.8,3.9,1.6,6
			c0,0,0,0,0,0.1c2,5.4,5.2,11.2,7.5,14.7c-2.4,6.1-7.8,21.2-6.3,28c0.6,2.6,2.8,4.6,5.5,4.8c0.3,0,8.8-1.3,16.2-2.6
			c-0.1-0.2-0.2-0.5-0.3-0.8c0.2,0.5,0.4,1,0.6,1.3c1,1.2,2.5,1.9,4.1,2c0.5,0,29.4-5,29.4-5l-2.4-9.9l-18.7-0.2l-3.9-14.8
			c-0.2-2.9-0.4-6.2-1.3-9 M279.6,75.3l-3.4-0.1l2.3-4.9c0.2,0.7,3.7,13.4,4.6,17C282.7,85.9,279.6,75.3,279.6,75.3z"/>
		<path class="st0" d="M263.9,45l-5.1,9.1c-0.3,0.4-0.8,0.6-1.3,0.4l-4.2-2.4c-0.3-0.2-0.5-0.6-0.3-1l5.2-9.3c0.8-1.5,2.7-2,4.2-1.2
			l0.2,0.1C264.2,41.7,264.7,43.5,263.9,45"/>
		<path class="st3" d="M259.6,32.5c1.1,1,1.7,2.4,1.9,2.7c1.3,1.1,6-3.9,4.9-7c-1.4-1.2-3.2-4-3.2-4c2.2-2.1-1.1-5.9-2.5-4.7
			c-1.4,1.2-1.2,2-1.2,2s1.5,6.1,1.5,6.3C261,27.8,259.6,32.5,259.6,32.5z"/>
		<path class="st3" d="M255.9,18.6c0.6,0.3,1,0.8,1.3,1.3c0.3,0.5,0.5,1.2,1,1.6c0,0,0.1,0.1,0.2,0.1c0.2,0,0.4-0.4,0.6-0.2
			c0.1,0.1,0.4,1,0.4,1.2c0.2,0.6,0.3,1.1,0.4,1.7c0.1,0.3,0.5,2.2,0,2.3c-0.6,0.1-4.5,1.4-5.4,2.6c-0.8,1.2-0.6,1.2-0.6,1.2
			c-0.1-0.4-0.8-1.4-1.2-1.9c-0.5-0.5-2.1-2.3-2.5-3c-0.4-0.7-1.1-2-0.9-2.8c0.5,0.4,0.9-3,1.3-2.5c0.4,0.5,0.5,0.9,1,0.6
			C251.9,20.6,254.3,21,255.9,18.6z"/>
		<path class="st10" d="M253.4,28.4"/>
		<path class="st3" d="M253.4,28.4"/>
		<path class="st1" d="M260.9,22.1c-0.8-1.5-0.1-2.7-0.1-2.7c0.3-2-1.3-4.7-1.5-3.3c-3.5-3.7-9.8,0.1-8.2,0.1
			c-3.8,3-4.6,4.8-2.9,4.7c-0.4,2.3,1,3.9,1.9,4.6c0-0.1-0.1-0.1-0.1-0.2c-0.4-0.7-1.1-2-0.9-2.8c0.5,0.4,0.9-3,1.3-2.5
			c0.4,0.5,0.5,0.9,1,0.6c0.4-0.2,2.8,0.2,4.4-2.2c0.6,0.3,1,0.8,1.3,1.3c0.3,0.5,0.5,1.2,1,1.6c0,0,0.1,0.1,0.2,0.1
			c0.2,0,0.4-0.4,0.6-0.2c0.1,0.1,0.4,1,0.4,1.2c0.2,0.6,0.3,1.1,0.4,1.7c0,0.3,0.5,2.2,0,2.3c-0.6,0.1-4.5,1.4-5.4,2.6
			c-0.4,0.7-0.6,0.9-0.6,1.1c0,0,0,0.1,0,0.1c0,0,0,0,0-0.1c-0.1-0.2-0.2-0.4-0.3-0.6l-0.1,0.6c0.2,0.8,1.3,4.8,4.1,4.3
			c2.8-0.5,6-3.8,5.9-6.4C263.3,25.5,261.7,23.5,260.9,22.1 M255,30.8c-0.3-0.2-0.3-0.6-0.1-0.9c0.5-0.5,1.5-1.3,2.7-1.7
			c0.3-0.1,0.7,0.1,0.7,0.5C258.6,30.8,256.5,31.7,255,30.8"/>
		<path class="st0" d="M261.1,16c-0.2-0.4-0.7-0.5-1-0.3c-0.3-0.5-0.9-1.1-1.6-1.8c-1.2-1.2-2.4-1.8-6.5-0.6
			c-4.1,2.4-7.6,3.8-4.4,9.6l-1.1,0.8c-0.4,0.2-0.5,0.7-0.3,1c0.2,0.4,0.7,0.5,1,0.3l13.6-8C261.1,16.8,261.3,16.3,261.1,16"/>
		<path class="st3" d="M287.2,44c-3.7,3.3-9.2,7-9.8,6.5c-0.7-0.5-2.2-1.1-3-0.4c-0.8,0.7-1.6,1.6-1.6,1.6c0.7,0.6,0.8,1.6,0.3,2.4
			c-1.1,1.5-2.8,3.8-2.5,4.1c0.3,0.5,1.6,0.1,1.6,0.1c0.8,0.4,1.1,0.3,1.1,0.3c1.3,0.6,5-1.8,5.9-2.7c1.9-0.7,12-4.6,15-6.5
			L287.2,44z"/>
		<path class="st0" d="M273,54.2c0.4-0.5,0.4-1.2,0.2-1.8l-15.5-8.8c-0.9-0.5-2.1-0.2-2.6,0.7l-0.1,0.1c-0.5,0.9-0.2,2.1,0.7,2.6
			l15.9,9C272.1,55.4,272.6,54.7,273,54.2"/>
		<path class="st0" d="M279.3,55.8c0,0-0.1,0-0.1,0.1c-0.5,0.6-2.1,1.7-3.6,2.4l1.8,1c0.9,0.5,2.1,0.2,2.6-0.7l0.1-0.1
			C280.5,57.5,280.2,56.4,279.3,55.8"/>
		<path class="st2" d="M354,165.5l-0.9,1.1c0,0-0.7-0.8-3.1-2c-1.6-0.8-5.2-2.8-7.5-4.1c0.1-0.2,0.2-0.4,0.2-0.8
			c0.1-0.5,0.1-1-0.2-1.6c-0.3-0.6-0.5-1.3-0.4-2c0-0.6,0.4-1.3,0.2-1.8c-0.3-0.8-0.9,0.3-1,0.6c-0.1,0.3-0.2,0.6-0.3,0.9
			c-0.1,0.4-1.6-0.5-2.4-1.6c-0.4-0.6-0.9-1.1-1.4-1.6c-0.2-0.2-0.5-0.7-0.9-0.7c-0.9,0.1-3.7,3.1-1.5,5.6c1.1,1.3,3.1,3.5,4.1,4.5
			c0.2,0.2,8.2,8.6,11.8,10.6c3.7,2,4.5,1.8,5.9,0.7c1.7-1.2,4.8-4.4,4.8-4.4"/>
		<path class="st2" d="M382.1,148.4l-0.4-1.6l-0.3-7.2c0.1-0.2,0.2-0.3,0.2-0.4c0,0,2.3-8.2,2.1-10.1c-0.9-1.8-2.3-3-4.3-3.7
			c-3.7-1.3-5.9,0.1-8.4,2.7c-0.5,1.2-0.9,3.9-1,4c0,0.1,0,0.2,0,0.3c0,0,0,0,0,0c0,0.1,0,0.2,0,0.3c0,0,0,0.1,0,0.1
			c0,0.1,0,0.2,0,0.2c-0.5,4.6,0.7,9.3,3.3,10.3c0,0,0.1,0,0.1,0c0.1,1.7,0.1,2.8,0.1,2.8"/>
		<path class="st2" d="M394,183.3c-0.1-0.9-1.2-16-1.2-16s2.6-0.8,2.9-0.9c1.2-0.2,2.4-0.6,3.9-1.3c0.4-0.2-0.7-0.3-0.4-0.6
			c0.1-0.1-0.9-3.6-1-4c-0.8-3.6-1.8-9.1-5.1-11.4c-2.5-1.7-6.1-1.8-9-2.4c-0.4-0.1-2.1-0.7-2.4-0.5c-0.7,0.4-1.6,0.9-2.5,1.1
			c-1.2,0.3-2.5,0.3-3.7,0c-0.8-0.2-1.6-0.7-2.1-1.1c-2.4,0.5-4.3,1.4-6.6,2.3c-0.8,0.3-1.5,0.7-2,1.3c-3.5,3.6-6.1,8.3-8.9,12.5
			c-0.7,1.1-1.5,2.1-2.3,3.2c-0.1,0.1-0.1,0.2,0.1,0.3c1.6,0.7,3.2,1.4,4.8,2.1c1.2,0.5,2.3,1.1,3.6,1.1c0.5,0,0.9,0,1.4-0.1
			c0.1,0.2,2.2-1.2,2.3-1c0.7,2.2,0,7.1,0,9.4c0,1.9,0.1,8.9,0.3,10.8"/>
		<path class="st10" d="M393.2,167.5c0,0,2.1,6.9,2.7,8.8"/>
		<path class="st2" d="M393.2,167.5c0,0,2.1,6.9,2.7,8.8"/>
		<path class="st1" d="M390.4,134.1c-0.7-4-3.4-11.5-12.4-11.5c-6.9,0-8.5,5.3-8.8,7.6c-0.1,0.6,0.4,1.1,1,1.1
			c1.9,0,5.8,0.1,7.6,0.1c0.4,0.8,0.7,1.8,0.7,2.3c0.3,2.3-0.3,5-0.7,7.3c-0.5,3-1.8,5,1.8,7c2,1.1,4.2,1.9,6.5,1.9
			c2.4,0,4-0.8,4.5-3.2c0.3-1.4,0.3-2.8,0.3-4.3C390.9,139.6,390.8,136.8,390.4,134.1"/>
	</g>
	<g>
		<path class="st1" d="M588,102c-10.3-7.8-25.6-11.5-46.9-11.5h-28.2c-0.7,0-1.2,0.6-1.2,1.2v60.8l2.5-2V93h27
			c20.7,0,35.6,3.6,45.4,11c10.5,7.9,16.3,21,16.3,37c0,14.7-4.6,26.3-13.6,34.5c-10,9-25.2,13.3-47.6,13.3h-20.1
			c0.5,0.6,1.1,1.2,1.6,1.8c0.2,0.2,0.3,0.4,0.4,0.7h18.1c23.1,0,38.8-4.4,49.3-13.9c9.4-8.6,14.4-21.2,14.4-36.4
			C605.3,124.2,599.2,110.4,588,102"/>
		<path class="st1" d="M515.7,190.1c-0.5-0.4-0.9-0.9-1.4-1.3h-0.2v-0.2c-0.7-0.6-1.3-1.3-1.8-2c-0.3-0.4-0.5-0.8-0.7-1.2v4.7
			c0,0.7,0.6,1.2,1.2,1.2h4.1C516.5,190.9,516.1,190.5,515.7,190.1"/>
		<path class="st1" d="M511.6,176.4c0.1,0.1,0.3,0.3,0.4,0.4c0.5,0.7,0.9,1.4,1.5,2c0.2,0.2,0.4,0.5,0.6,0.7v-12l-2.5,3.2V176.4z"/>
		<path class="st1" d="M799.3,91.1c-0.2-0.4-0.6-0.7-1.1-0.7h-31.8c-0.4,0-0.8,0.2-1,0.6l-9.1,14.1c-3.2,5-6.5,10.2-9.7,15.4
			c-3.1-5-6.5-10.4-10-15.6l-9-13.8c-0.2-0.4-0.6-0.6-1-0.6h-32.6c-0.5,0-0.9,0.3-1.1,0.7c-0.2,0.4-0.2,0.9,0.1,1.3l37.9,54V190
			c0,0.7,0.6,1.2,1.2,1.2h28c0.7,0,1.2-0.6,1.2-1.2v-44.1l37.8-53.4C799.5,92.1,799.6,91.6,799.3,91.1 M759.2,144.8
			c-0.1,0.2-0.2,0.5-0.2,0.7v43.3h-25.5V146c0-0.3-0.1-0.5-0.2-0.7L696.5,93H726l8.6,13.3c3.8,5.8,7.5,11.7,10.8,17.1
			c0.2,0.4,0.6,0.6,1.1,0.6h0.3c0.4,0,0.8-0.2,1.1-0.6l0.1-0.1c3.4-5.6,7-11.3,10.5-16.7l8.7-13.5h28.7L759.2,144.8z"/>
		<path class="st1" d="M568.4,119.9c-6.8-5.1-17.3-5.8-26.7-5.8h-1c-0.7,0-1.2,0.6-1.2,1.2v31.1c0.8,0.3,1.7,0.7,2.5,1v-30.9
			c8.9,0,18.7,0.7,24.9,5.3c5.3,4,7.9,10.3,7.9,19.1c0,6.8-1.6,12.2-4.7,16c-3.2,3.8-8.7,7.7-25.3,8.1c0,0.1,0,0.1,0,0.2
			c0,0.5,0,1.1,0,1.6c0.1,0.2,0.2,0.4,0.3,0.7c13.9-0.4,22-3.1,26.9-9c3.5-4.3,5.3-10.2,5.3-17.6
			C577.3,131.5,574.3,124.4,568.4,119.9"/>
		<path class="st1" d="M671.9,91.3c-0.2-0.5-0.6-0.8-1.2-0.8h-27.6c-0.5,0-1,0.3-1.2,0.8l-39.8,98.3c-0.2,0.4-0.1,0.8,0.1,1.2
			c0.2,0.3,0.6,0.5,1,0.5h28.9c0.5,0,1-0.3,1.2-0.8l6.9-19.3h31.9l6.6,19.3c0.2,0.5,0.6,0.8,1.2,0.8h30.4c0.4,0,0.8-0.2,1-0.5
			c0.2-0.3,0.3-0.8,0.1-1.2L671.9,91.3z M681,188.8l-6.6-19.3c-0.2-0.5-0.6-0.8-1.2-0.8h-33.7c-0.5,0-1,0.3-1.2,0.8l-6.9,19.3h-26.2
			L644,93h25.9l38.8,95.8H681z"/>
		<path class="st1" d="M663.9,139.5c-2.4-7-4.3-12.9-6-18.3c-0.2-0.5-0.6-0.9-1.2-0.9h-0.3c-0.5,0-1,0.4-1.2,0.9
			c-1.9,6.2-3.8,11.9-6.1,18.3l-3.4,9.4c-0.1,0.4-0.1,0.8,0.2,1.1c0.2,0.3,0.6,0.5,1,0.5h19c0.4,0,0.8-0.2,1-0.5
			c0.2-0.3,0.3-0.7,0.2-1.1L663.9,139.5z M648.8,148l2.8-7.7c1.9-5.3,3.5-10,5.1-15c1.4,4.5,3,9.4,4.9,15l2.7,7.7H648.8z"/>
		<path class="st2" d="M549.1,150l8.7,3.2l9.8-14.6c-0.1-0.6-0.1-1.3-0.1-1.9c0-0.6,0-1.1,0.1-1.7c0.1-0.9,0.4-4.6,1.2-5
			c1-0.4,2,0.1,2.5,1c0.3,0.6,0.4,4.2,0.4,4.8c0,1.2-0.2,2.4-0.4,3.6c0,0,0,0,0,0c0,0.2-0.1,0.4-0.2,0.6l-9.6,19.4
			c-0.9,1.7-2.8,2.7-4.7,2.2l-10.3-2.5"/>
		<path class="st2" d="M534.2,145l-0.4-5.6c3.1-1.4,4.6-4.9,3.3-8c-0.8-2.1-2.6-3.7-4.6-4.1c-2-0.4-4.6,0.1-6.4,1
			c-1.7,0.9-2.7,2.9-2.7,4.7c0,2.6,1.6,3.2,3.1,4.8l0.5,6.4"/>
		<path class="st1" d="M522.4,131.7c0,0,0.6-1,0.6-1c0.6-1,1.3,1.1,3.7,0.8c0.4-0.1,4-1.7,4.3-0.4l0.7,2.1c0.2,0.5-0.2,1.1-0.7,1.2
			c-0.4,0.1-0.8-0.1-1-0.4l-0.1-0.1c0,0,0,0,0,0c-0.1-0.1-0.1-0.2-0.2-0.3l-0.1-0.2l0,0c-0.4-0.4-1-0.7-1.7-0.6
			c-1.1,0.2-1.8,1.2-1.6,2.3c0.2,1.2,1.3,1.2,1.9,2c0.5,0.7,0.2,1.7-0.4,2.5c-0.4,0.5-1,1.1-1.6,1c-2.1-0.2-3.8-4.5-4-6.3
			C522.1,133.5,521.9,132.4,522.4,131.7"/>
		<path class="st2" d="M546.9,188.5l-2.5-29.6c0,0,0-0.1,0-0.3l2.1,0.5l2.7-9.2c0,0-15.4-6.4-21.9-5.7c-1.8,0.2-3.6,0.7-5.2,1.3
			c-1.3,0.5-2.5,1.1-3.7,1.7l-3.7,2.7c-0.6,0.5-1.1,1-1.7,1.6c-1.1,1.1-2,2.4-2.9,3.7l-3.2,5.1l0.4,0.3l8.1,5.1l-0.5,14.4"/>
		<path class="st2" d="M515.3,165.9l-2.5,3.3l-2.1,2.7c-0.8,1.1-0.8,2.6,0.1,3.6l11.7,15c0.5,0.6,6.7,4.3,6.4,5
			c-0.4,0.9-0.6,7.5-1.4,7.5c-0.5,0-7.1-8.6-7.5-9l-18.5-17.8c-1.7-1.5-2.1-4-1-6l3.9-6.2l2.2-3.3"/>
		<polyline class="st2" points="506.8,160.4 507.1,160.6 515.2,165.7 		"/>
	</g>
</g>
</svg>
