<?xml version="1.0" encoding="utf-8"?>
<!-- Generator: Adobe Illustrator 25.2.2, SVG Export Plug-In . SVG Version: 6.00 Build 0)  -->
<svg version="1.1" id="Layer_1" xmlns="http://www.w3.org/2000/svg" xmlns:xlink="http://www.w3.org/1999/xlink" x="0px" y="0px"
	 viewBox="0 0 592.2 140.2" style="enable-background:new 0 0 592.2 140.2;" xml:space="preserve">
<style type="text/css">
	.st0{fill:none;stroke:#FFFFFF;stroke-width:2;stroke-linejoin:round;stroke-miterlimit:10;}
	.st1{fill:none;stroke:#FFFFFF;stroke-width:2;stroke-miterlimit:10;}
	.st2{clip-path:url(#SVGID_2_);fill:#3CB1C9;}
	
		.st3{clip-path:url(#SVGID_4_);fill:none;stroke:#45283B;stroke-width:0.75;stroke-linecap:round;stroke-linejoin:round;stroke-miterlimit:10;}
	.st4{clip-path:url(#SVGID_6_);fill:#3CB1C9;}
	
		.st5{clip-path:url(#SVGID_8_);fill:none;stroke:#45283B;stroke-width:0.75;stroke-linecap:round;stroke-linejoin:round;stroke-miterlimit:10;}
	.st6{clip-path:url(#SVGID_10_);fill:#3CB1C9;}
	
		.st7{clip-path:url(#SVGID_12_);fill:none;stroke:#45283B;stroke-width:0.75;stroke-linecap:round;stroke-linejoin:round;stroke-miterlimit:10;}
	.st8{clip-path:url(#SVGID_14_);fill:#3CB1C9;}
	
		.st9{clip-path:url(#SVGID_16_);fill:none;stroke:#45283B;stroke-width:0.75;stroke-linecap:round;stroke-linejoin:round;stroke-miterlimit:10;}
	.st10{clip-path:url(#SVGID_18_);fill:#3CB1C9;}
	
		.st11{clip-path:url(#SVGID_20_);fill:none;stroke:#45283B;stroke-width:0.75;stroke-linecap:round;stroke-linejoin:round;stroke-miterlimit:10;}
	.st12{clip-path:url(#SVGID_22_);fill:#3CB1C9;}
	
		.st13{clip-path:url(#SVGID_24_);fill:none;stroke:#45283B;stroke-width:0.75;stroke-linecap:round;stroke-linejoin:round;stroke-miterlimit:10;}
	.st14{clip-path:url(#SVGID_26_);fill:#3CB1C9;}
	
		.st15{clip-path:url(#SVGID_28_);fill:none;stroke:#45283B;stroke-width:0.75;stroke-linecap:round;stroke-linejoin:round;stroke-miterlimit:10;}
	.st16{clip-path:url(#SVGID_30_);fill:#3CB1C9;}
	
		.st17{clip-path:url(#SVGID_32_);fill:none;stroke:#45283B;stroke-width:0.75;stroke-linecap:round;stroke-linejoin:round;stroke-miterlimit:10;}
	.st18{clip-path:url(#SVGID_34_);fill:#3CB1C9;}
	
		.st19{clip-path:url(#SVGID_36_);fill:none;stroke:#45283B;stroke-width:0.75;stroke-linecap:round;stroke-linejoin:round;stroke-miterlimit:10;}
	.st20{fill:#45283B;}
	.st21{fill:none;stroke:#FFFFFF;stroke-width:0.75;stroke-linecap:round;stroke-miterlimit:10;}
	.st22{fill:#3CB1C9;}
	.st23{fill:none;stroke:#45283B;stroke-width:0.75;stroke-linecap:round;stroke-linejoin:round;stroke-miterlimit:10;}
</style>
<g>
	<polygon class="st0" points="316.4,122.7 381,122.7 381,99.5 343.9,99.5 343.9,83.4 373.9,83.4 373.9,61.5 343.9,61.5 343.9,49.3 
		379.4,49.3 379.4,26 316.4,26 	"/>
	<path class="st0" d="M140.1,115.7c9.7,4.7,22.2,6.9,32,6.9c22.4,0,37.8-11.9,37.8-31.4c0-16.3-10.5-23.8-25.6-29.1
		c-11.7-4.1-19.2-4.1-19.2-10.4c0-4.3,3.5-5.9,8.5-5.9c6.8,0,19.6,3.1,31.2,9.6V30.2c-9.1-4.5-21.5-7.1-31.5-7.1
		c-21.6,0-36.2,11.9-36.2,30.7c0,15.6,10.1,22.8,24.8,27.9c12.3,4.3,20,4.3,20,11.2c0,4.9-4,6.9-9.6,6.9c-6.7,0-20.3-2.9-32.3-9.9
		v25.8H140.1z"/>
	<path class="st0" d="M229.7,115.7c9.7,4.7,22.2,6.9,32,6.9c22.4,0,37.8-11.9,37.8-31.4c0-16.3-10.5-23.8-25.6-29.1
		c-11.7-4.1-19.2-4.1-19.2-10.4c0-4.3,3.5-5.9,8.5-5.9c6.8,0,19.6,3.1,31.2,9.6V30.2c-9.1-4.5-21.5-7.1-31.5-7.1
		c-21.6,0-36.2,11.9-36.2,30.7c0,15.6,10.1,22.8,24.8,27.9c12.3,4.3,20,4.3,20,11.2c0,4.9-4,6.9-9.6,6.9c-6.7,0-20.3-2.9-32.3-9.9
		v25.8H229.7z"/>
	<path class="st0" d="M506.6,115.7c9.7,4.7,22.2,6.9,32,6.9c22.4,0,37.8-11.9,37.8-31.4c0-16.3-10.5-23.8-25.6-29.1
		c-11.7-4.1-19.2-4.1-19.2-10.4c0-4.3,3.5-5.9,8.5-5.9c6.8,0,19.6,3.1,31.2,9.6V30.2c-9.1-4.5-21.5-7.1-31.5-7.1
		c-21.6,0-36.2,11.9-36.2,30.7c0,15.6,10.1,22.8,24.8,27.9c12.3,4.3,20,4.3,20,11.2c0,4.9-4,6.9-9.6,6.9c-6.7,0-20.3-2.9-32.3-9.9
		L506.6,115.7L506.6,115.7z"/>
	<path class="st1" d="M70.3,55.4c1.9,6,3.6,11.5,5.9,18l3.2,9.2H60.7l3.3-9.2c2.3-6.3,4.1-11.9,6-18H70.3z M17.8,122.7h28.4
		l7.1-19.8h33.1l6.8,19.8h29.9L84,26H56.9L17.8,122.7z"/>
	<g>
		<polygon class="st0" points="428,122.7 455.5,122.7 455.5,49.3 486.2,49.3 486.2,26 397.3,26 397.3,49.3 428,49.3 		"/>
		<g>
			<g>
				<defs>
					<path id="SVGID_1_" d="M449.3,18.5l1.8,8.5h-52.8v21.2H428c0.6,0,1,0.4,1,1v72.4h25.5V85.1c0-0.6,32.8,12.7,33.3,12.7l5.7-39.2
						l-26.9-43.4L449.3,18.5z"/>
				</defs>
				<clipPath id="SVGID_2_">
					<use xlink:href="#SVGID_1_"  style="overflow:visible;"/>
				</clipPath>
				<path class="st2" d="M486.3,180.7h5.9L429.5,10.5h-5c0,0.1,2.6,7.6,6.8,19.3h-20l-7.1-19.3h-5C399,11.2,461,180.7,461,180.7h5.9
					l-10.1-27.4h19.5C482.3,169.7,486.3,180.7,486.3,180.7 M434,91.3h19.7c3.4,9.3,6.8,18.7,10.1,27.7h-19.6L434,91.3z M452.4,87.8
					h-19.7l-9.8-26.6h19.8C445.8,69.6,449.1,78.7,452.4,87.8 M432.6,33.4c2.5,7,5.5,15.3,8.8,24.3h-19.9l-8.9-24.3H432.6z
					 M455.5,149.8l-10-27.1h19.6c3.6,9.8,6.9,19,9.9,27.1H455.5z"/>
			</g>
			<g>
				<defs>
					<path id="SVGID_3_" d="M449.3,18.5l1.8,8.5h-52.8v21.2H428c0.6,0,1,0.4,1,1v72.4h25.5V85.1c0-0.6,32.8,12.7,33.3,12.7l5.7-39.2
						l-26.9-43.4L449.3,18.5z"/>
				</defs>
				<clipPath id="SVGID_4_">
					<use xlink:href="#SVGID_3_"  style="overflow:visible;"/>
				</clipPath>
				<path class="st3" d="M486.3,180.7h5.9L429.5,10.5h-5c0,0.1,2.6,7.6,6.8,19.3h-20l-7.1-19.3h-5C399,11.2,461,180.7,461,180.7h5.9
					l-10.1-27.4h19.5C482.3,169.7,486.3,180.7,486.3,180.7z M434,91.3h19.7c3.4,9.3,6.8,18.7,10.1,27.7h-19.6L434,91.3z M452.4,87.8
					h-19.7l-9.8-26.6h19.8C445.8,69.6,449.1,78.7,452.4,87.8z M432.6,33.4c2.5,7,5.5,15.3,8.8,24.3h-19.9l-8.9-24.3H432.6z
					 M455.5,149.8l-10-27.1h19.6c3.6,9.8,6.9,19,9.9,27.1H455.5z"/>
			</g>
			<g>
				<defs>
					<path id="SVGID_5_" d="M449.3,18.5l1.8,8.5h-52.8v21.2H428c0.6,0,1,0.4,1,1v72.4h25.5V85.1c0-0.6,32.8,12.7,33.3,12.7l5.7-39.2
						l-26.9-43.4L449.3,18.5z"/>
				</defs>
				<clipPath id="SVGID_6_">
					<use xlink:href="#SVGID_5_"  style="overflow:visible;"/>
				</clipPath>
				<path class="st4" d="M430.4,32.9c-0.4,0.3-0.8,0.7-1.3,0.9c-0.2,0.1-0.3,0.2-0.5,0.2c-0.3,0.1-0.7,0.1-1,0s-0.4-0.3-0.6-0.5
					s-0.6-0.2-0.8-0.2c-0.6,0-1.2,0-1.9,0c-0.3,0-0.6,0-0.9-0.1s-0.8-0.3-0.7-0.7c0-0.1,0.1-0.2,0.2-0.2c0.3-0.2,0.7-0.2,1.1-0.3
					c0.2,0,0.4-0.1,0.6-0.1s0.3-0.1,0.4-0.3c0.1-0.1,0.1-0.3,0.1-0.5c-0.1-0.5-0.5-1.1-1-1.3c-0.4-0.1-0.8-0.2-1.3-0.2
					c-0.2,0-0.4,0-0.7,0c-0.1,0-0.6,0-0.7,0c0.1-0.3,0.3-0.5,0.5-0.7c0.6-0.4,1.3-0.3,1.9-0.4c0.2,0,0.4,0,0.6,0c0.1,0,0.1,0,0.2,0
					c0.5,0,0.9-0.1,1.4,0c0.4,0,0.8,0.1,1.2,0.2c0.2,0,0.3,0,0.5,0c0.3,0,0.5,0.2,0.7,0.4c0.1,0.1,0.1,0.2,0.2,0.2
					c0.6,0.8,1.2,1.7,1.6,2.6C430.7,32.5,430.8,32.6,430.4,32.9"/>
			</g>
			<g>
				<defs>
					<path id="SVGID_7_" d="M449.3,18.5l1.8,8.5h-52.8v21.2H428c0.6,0,1,0.4,1,1v72.4h25.5V85.1c0-0.6,32.8,12.7,33.3,12.7l5.7-39.2
						l-26.9-43.4L449.3,18.5z"/>
				</defs>
				<clipPath id="SVGID_8_">
					<use xlink:href="#SVGID_7_"  style="overflow:visible;"/>
				</clipPath>
				<path class="st5" d="M430.4,32.9c-0.4,0.3-0.8,0.7-1.3,0.9c-0.2,0.1-0.3,0.2-0.5,0.2c-0.3,0.1-0.7,0.1-1,0s-0.4-0.3-0.6-0.5
					s-0.6-0.2-0.8-0.2c-0.6,0-1.2,0-1.9,0c-0.3,0-0.6,0-0.9-0.1s-0.8-0.3-0.7-0.7c0-0.1,0.1-0.2,0.2-0.2c0.3-0.2,0.7-0.2,1.1-0.3
					c0.2,0,0.4-0.1,0.6-0.1s0.3-0.1,0.4-0.3c0.1-0.1,0.1-0.3,0.1-0.5c-0.1-0.5-0.5-1.1-1-1.3c-0.4-0.1-0.8-0.2-1.3-0.2
					c-0.2,0-0.4,0-0.7,0c-0.1,0-0.6,0-0.7,0c0.1-0.3,0.3-0.5,0.5-0.7c0.6-0.4,1.3-0.3,1.9-0.4c0.2,0,0.4,0,0.6,0c0.1,0,0.1,0,0.2,0
					c0.5,0,0.9-0.1,1.4,0c0.4,0,0.8,0.1,1.2,0.2c0.2,0,0.3,0,0.5,0c0.3,0,0.5,0.2,0.7,0.4c0.1,0.1,0.1,0.2,0.2,0.2
					c0.6,0.8,1.2,1.7,1.6,2.6C430.7,32.5,430.8,32.6,430.4,32.9z"/>
			</g>
			<g>
				<defs>
					<path id="SVGID_9_" d="M449.3,18.5l1.8,8.5h-52.8v21.2H428c0.6,0,1,0.4,1,1v72.4h25.5V85.1c0-0.6,32.8,12.7,33.3,12.7l5.7-39.2
						l-26.9-43.4L449.3,18.5z"/>
				</defs>
				<clipPath id="SVGID_10_">
					<use xlink:href="#SVGID_9_"  style="overflow:visible;"/>
				</clipPath>
				<path class="st6" d="M471.4,45.2c-2.2-2.5-5.9-4.2-9.4-5.3c-1.1-0.4-2.3-0.7-3.3-1c-0.7-0.2-1.3-0.3-2-0.2
					c-1.2,0-3.2,0.4-5.4,0.8c-4.2,0.8-8.8,1.9-8.8,1.9L430.1,31l-2,2.3l-0.8,0.9c0,0,13.5,14.2,15.4,14.7c1.4,0.3,6.8-0.4,9.8-0.9
					c-1.1,5.7-1.7,11.4-1.8,17.2c0,1.8,0,3.6,0,5.4c6.6,2.2,12.5,6.6,16.4,12.3c1.6-7.5,3.1-15,4.7-22.4
					C472.7,56.4,474.5,48.7,471.4,45.2"/>
			</g>
			<g>
				<defs>
					<path id="SVGID_11_" d="M449.3,18.5l1.8,8.5h-52.8v21.2H428c0.6,0,1,0.4,1,1v72.4h25.5V85.1c0-0.6,32.8,12.7,33.3,12.7
						l5.7-39.2l-26.9-43.4L449.3,18.5z"/>
				</defs>
				<clipPath id="SVGID_12_">
					<use xlink:href="#SVGID_11_"  style="overflow:visible;"/>
				</clipPath>
				<path class="st7" d="M471.4,45.2c-2.2-2.5-5.9-4.2-9.4-5.3c-1.1-0.4-2.3-0.7-3.3-1c-0.7-0.2-1.3-0.3-2-0.2
					c-1.2,0-3.2,0.4-5.4,0.8c-4.2,0.8-8.8,1.9-8.8,1.9L430.1,31l-2,2.3l-0.8,0.9c0,0,13.5,14.2,15.4,14.7c1.4,0.3,6.8-0.4,9.8-0.9
					c-1.1,5.7-1.7,11.4-1.8,17.2c0,1.8,0,3.6,0,5.4c6.6,2.2,12.5,6.6,16.4,12.3c1.6-7.5,3.1-15,4.7-22.4
					C472.7,56.4,474.5,48.7,471.4,45.2z"/>
			</g>
			<g>
				<defs>
					<path id="SVGID_13_" d="M449.3,18.5l1.8,8.5h-52.8v21.2H428c0.6,0,1,0.4,1,1v72.4h25.5V85.1c0-0.6,32.8,12.7,33.3,12.7
						l5.7-39.2l-26.9-43.4L449.3,18.5z"/>
				</defs>
				<clipPath id="SVGID_14_">
					<use xlink:href="#SVGID_13_"  style="overflow:visible;"/>
				</clipPath>
				<path class="st8" d="M453.1,111.9c0,0.2,0.4,1.9,0.4,1.9l-0.6,2l-4.4-0.5l-0.1-3.2L453.1,111.9z"/>
			</g>
			<g>
				<defs>
					<path id="SVGID_15_" d="M449.3,18.5l1.8,8.5h-52.8v21.2H428c0.6,0,1,0.4,1,1v72.4h25.5V85.1c0-0.6,32.8,12.7,33.3,12.7
						l5.7-39.2l-26.9-43.4L449.3,18.5z"/>
				</defs>
				<clipPath id="SVGID_16_">
					<use xlink:href="#SVGID_15_"  style="overflow:visible;"/>
				</clipPath>
				<path class="st9" d="M453.1,111.9c0,0.2,0.4,1.9,0.4,1.9l-0.6,2l-4.4-0.5l-0.1-3.2L453.1,111.9z"/>
			</g>
			<g>
				<defs>
					<path id="SVGID_17_" d="M449.3,18.5l1.8,8.5h-52.8v21.2H428c0.6,0,1,0.4,1,1v72.4h25.5V85.1c0-0.6,32.8,12.7,33.3,12.7
						l5.7-39.2l-26.9-43.4L449.3,18.5z"/>
				</defs>
				<clipPath id="SVGID_18_">
					<use xlink:href="#SVGID_17_"  style="overflow:visible;"/>
				</clipPath>
				<path class="st10" d="M458.4,38.8L458.4,38.8c-0.1,0.1-0.3,0.3-0.4,0.4c-0.1,0.1-0.2,0.2-0.4,0.4c-0.1,0.1-0.2,0.2-0.3,0.3
					c0,0.1-0.1,0.1-0.1,0.2c-0.1,0.2-0.3,0.4-0.4,0.6c-0.1,0.1-0.1,0.3-0.2,0.4c-0.1,0.1-0.1,0.3-0.2,0.5c-0.1,0.2-0.1,0.4-0.2,0.6
					c-0.1,0.3-0.2,0.6-0.3,0.9c-0.1,0.2-0.1,0.4-0.2,0.6c0,0.1-0.1,0.2-0.1,0.3c-0.1,0.2-0.1,0.5-0.2,0.7c0,0.1,0,0.1,0,0.2
					c-0.4,1.5-0.7,3-0.8,4.5l3.4,1.1l5.5,1.7c0.2-1.1,0.4-2.2,0.6-3.3c0.4-1.7,1.4-5.9,3.6-6.5c0.3,0,1,0.6,1,0.6
					c-0.4,0.3-0.8,0.6-1.1,1c-1.2,1.3-1.6,3.1-2,4.8c-0.3,1.3-0.6,2.6-0.8,3.9l0.9,0.3c0,0-0.5,12.9,1.9,14.9s2.4,3.9,2.4,3.9
					l-1.9,16l-0.5,4l-2.2,18l-3.1,33.9l-3.1-0.6l-2.7-0.5l-0.2-33l-0.5-26.1l-5.8,5.1l0.4,2.3l3.5,22l-3.3,0.5l-2.5,0.3
					c0,0-9.4-24-8.1-29.5c1.3-5.4,10.2-13.5,10.2-13.5s0.7-15.3,2.3-22.3c0,0,0.5-7.2,3.8-9.5"/>
			</g>
			<g>
				<defs>
					<path id="SVGID_19_" d="M449.3,18.5l1.8,8.5h-52.8v21.2H428c0.6,0,1,0.4,1,1v72.4h25.5V85.1c0-0.6,32.8,12.7,33.3,12.7
						l5.7-39.2l-26.9-43.4L449.3,18.5z"/>
				</defs>
				<clipPath id="SVGID_20_">
					<use xlink:href="#SVGID_19_"  style="overflow:visible;"/>
				</clipPath>
				<path class="st11" d="M458.4,38.8L458.4,38.8c-0.1,0.1-0.3,0.3-0.4,0.4c-0.1,0.1-0.2,0.2-0.4,0.4c-0.1,0.1-0.2,0.2-0.3,0.3
					c0,0.1-0.1,0.1-0.1,0.2c-0.1,0.2-0.3,0.4-0.4,0.6c-0.1,0.1-0.1,0.3-0.2,0.4c-0.1,0.1-0.1,0.3-0.2,0.5c-0.1,0.2-0.1,0.4-0.2,0.6
					c-0.1,0.3-0.2,0.6-0.3,0.9c-0.1,0.2-0.1,0.4-0.2,0.6c0,0.1-0.1,0.2-0.1,0.3c-0.1,0.2-0.1,0.5-0.2,0.7c0,0.1,0,0.1,0,0.2
					c-0.4,1.5-0.7,3-0.8,4.5l3.4,1.1l5.5,1.7c0.2-1.1,0.4-2.2,0.6-3.3c0.4-1.7,1.4-5.9,3.6-6.5c0.3,0,1,0.6,1,0.6
					c-0.4,0.3-0.8,0.6-1.1,1c-1.2,1.3-1.6,3.1-2,4.8c-0.3,1.3-0.6,2.6-0.8,3.9l0.9,0.3c0,0-0.5,12.9,1.9,14.9s2.4,3.9,2.4,3.9
					l-1.9,16l-0.5,4l-2.2,18l-3.1,33.9l-3.1-0.6l-2.7-0.5l-0.2-33l-0.5-26.1l-5.8,5.1l0.4,2.3l3.5,22l-3.3,0.5l-2.5,0.3
					c0,0-9.4-24-8.1-29.5c1.3-5.4,10.2-13.5,10.2-13.5s0.7-15.3,2.3-22.3c0,0,0.5-7.2,3.8-9.5"/>
			</g>
			<g>
				<defs>
					<path id="SVGID_21_" d="M449.3,18.5l1.8,8.5h-52.8v21.2H428c0.6,0,1,0.4,1,1v72.4h25.5V85.1c0-0.6,32.8,12.7,33.3,12.7
						l5.7-39.2l-26.9-43.4L449.3,18.5z"/>
				</defs>
				<clipPath id="SVGID_22_">
					<use xlink:href="#SVGID_21_"  style="overflow:visible;"/>
				</clipPath>
				<path class="st12" d="M455,117.7c-0.5-1.7-1.2-7.6-1.2-7.6s-5.9,0.9-6.7,1c0.6,2.9-2.3,4.3-3.3,4.8c-0.5,0.3-0.9,0.6-1.3,1
					c-0.9,0.9-0.2,2.4,1.1,2.4h2l8.5-0.3C454.7,119,455.1,118.4,455,117.7"/>
			</g>
			<g>
				<defs>
					<path id="SVGID_23_" d="M449.3,18.5l1.8,8.5h-52.8v21.2H428c0.6,0,1,0.4,1,1v72.4h25.5V85.1c0-0.6,32.8,12.7,33.3,12.7
						l5.7-39.2l-26.9-43.4L449.3,18.5z"/>
				</defs>
				<clipPath id="SVGID_24_">
					<use xlink:href="#SVGID_23_"  style="overflow:visible;"/>
				</clipPath>
				<path class="st13" d="M455,117.7c-0.5-1.7-1.2-7.6-1.2-7.6s-5.9,0.9-6.7,1c0.6,2.9-2.3,4.3-3.3,4.8c-0.5,0.3-0.9,0.6-1.3,1
					c-0.9,0.9-0.2,2.4,1.1,2.4h2l8.5-0.3C454.7,119,455.1,118.4,455,117.7z"/>
			</g>
			<g>
				<defs>
					<path id="SVGID_25_" d="M449.3,18.5l1.8,8.5h-52.8v21.2H428c0.6,0,1,0.4,1,1v72.4h25.5V85.1c0-0.6,32.8,12.7,33.3,12.7
						l5.7-39.2l-26.9-43.4L449.3,18.5z"/>
				</defs>
				<clipPath id="SVGID_26_">
					<use xlink:href="#SVGID_25_"  style="overflow:visible;"/>
				</clipPath>
				<path class="st14" d="M465,150.3c-1.5,0-2.9,0-4.4-0.1c-0.2,0-0.3,0-0.4,0c-0.7,0-1.4,0-2.2-0.1c-0.3,0-2.2-0.1-2.3-0.4
					c-0.3-0.9-0.2-1.8,0-2.7s0.5-1.8,0.6-2.7c0-0.2-0.3-3.2-0.1-3.2c0.6-0.1,5.8-0.4,6.4,0.5c0.1,0.2-0.2,1.5-0.2,1.8
					c0.3,1.1,1.2,2.1,1.9,3c0.8,1,1.5,2,1.9,3.2C466.6,150.3,465.5,150.3,465,150.3"/>
			</g>
			<g>
				<defs>
					<path id="SVGID_27_" d="M449.3,18.5l1.8,8.5h-52.8v21.2H428c0.6,0,1,0.4,1,1v72.4h25.5V85.1c0-0.6,32.8,12.7,33.3,12.7
						l5.7-39.2l-26.9-43.4L449.3,18.5z"/>
				</defs>
				<clipPath id="SVGID_28_">
					<use xlink:href="#SVGID_27_"  style="overflow:visible;"/>
				</clipPath>
				<path class="st15" d="M465,150.3c-1.5,0-2.9,0-4.4-0.1c-0.2,0-0.3,0-0.4,0c-0.7,0-1.4,0-2.2-0.1c-0.3,0-2.2-0.1-2.3-0.4
					c-0.3-0.9-0.2-1.8,0-2.7s0.5-1.8,0.6-2.7c0-0.2-0.3-3.2-0.1-3.2c0.6-0.1,5.8-0.4,6.4,0.5c0.1,0.2-0.2,1.5-0.2,1.8
					c0.3,1.1,1.2,2.1,1.9,3c0.8,1,1.5,2,1.9,3.2C466.6,150.3,465.5,150.3,465,150.3z"/>
			</g>
			<g>
				<defs>
					<path id="SVGID_29_" d="M449.3,18.5l1.8,8.5h-52.8v21.2H428c0.6,0,1,0.4,1,1v72.4h25.5V85.1c0-0.6,32.8,12.7,33.3,12.7
						l5.7-39.2l-26.9-43.4L449.3,18.5z"/>
				</defs>
				<clipPath id="SVGID_30_">
					<use xlink:href="#SVGID_29_"  style="overflow:visible;"/>
				</clipPath>
				<path class="st16" d="M459.4,37.1c-0.4,0.8-1,1.9-1.1,2.2c0,0.1-0.1,0.1-0.1,0.1s0,0,0,0.1c0,0.3,0.1,2.1,1.7,3.1
					c0.5,0.3,1,0.4,1.6,0.4s1.2,0,1.7-0.1c0.7-0.1,1.5-0.1,2.2-0.4c0.5-0.3,0.4-0.4,0.2-0.9c-0.1-0.4-0.3-0.8-0.3-1.3
					c-0.1-1,0.7-4.1,3.7-7.1c1.2-1.2,1.8-2.7,2.3-4.4v-0.1c0.6-2.4-0.6-4.9-2.6-6.2c-1.7-1-4-1.6-6-1.1c-0.4,0.1-0.7,0.3-1.1,0.5
					c-0.5,0.3-1,0.8-1.4,1.3c-0.2,0.2-0.4,0.5-0.5,0.8c-0.5,0.9-0.8,2.3-0.9,3.3c-0.2,1-0.5,1.9-0.7,3c-0.3,2-0.4,3.5,0.6,5.3
					c0.2,0.4,0.5,0.9,0.8,1.3c0.5,0.6,1.9,1.1,2.3,1.1"/>
			</g>
			<g>
				<defs>
					<path id="SVGID_31_" d="M449.3,18.5l1.8,8.5h-52.8v21.2H428c0.6,0,1,0.4,1,1v72.4h25.5V85.1c0-0.6,32.8,12.7,33.3,12.7
						l5.7-39.2l-26.9-43.4L449.3,18.5z"/>
				</defs>
				<clipPath id="SVGID_32_">
					<use xlink:href="#SVGID_31_"  style="overflow:visible;"/>
				</clipPath>
				<path class="st17" d="M459.4,37.1c-0.4,0.8-1,1.9-1.1,2.2c0,0.1-0.1,0.1-0.1,0.1s0,0,0,0.1c0,0.3,0.1,2.1,1.7,3.1
					c0.5,0.3,1,0.4,1.6,0.4s1.2,0,1.7-0.1c0.7-0.1,1.5-0.1,2.2-0.4c0.5-0.3,0.4-0.4,0.2-0.9c-0.1-0.4-0.3-0.8-0.3-1.3
					c-0.1-1,0.7-4.1,3.7-7.1c1.2-1.2,1.8-2.7,2.3-4.4v-0.1c0.6-2.4-0.6-4.9-2.6-6.2c-1.7-1-4-1.6-6-1.1c-0.4,0.1-0.7,0.3-1.1,0.5
					c-0.5,0.3-1,0.8-1.4,1.3c-0.2,0.2-0.4,0.5-0.5,0.8c-0.5,0.9-0.8,2.3-0.9,3.3c-0.2,1-0.5,1.9-0.7,3c-0.3,2-0.4,3.5,0.6,5.3
					c0.2,0.4,0.5,0.9,0.8,1.3c0.5,0.6,1.9,1.1,2.3,1.1"/>
			</g>
			<g>
				<defs>
					<path id="SVGID_33_" d="M449.3,18.5l1.8,8.5h-52.8v21.2H428c0.6,0,1,0.4,1,1v72.4h25.5V85.1c0-0.6,32.8,12.7,33.3,12.7
						l5.7-39.2l-26.9-43.4L449.3,18.5z"/>
				</defs>
				<clipPath id="SVGID_34_">
					<use xlink:href="#SVGID_33_"  style="overflow:visible;"/>
				</clipPath>
				<path class="st18" d="M457.4,24c0.3,0.1,0.6,0.2,0.8,0.3c0.2-0.7,2-4.3,5.2-4.8c1.6-0.2,2.8,0.3,3.7,0.6c1.4,0.5,1.9,0.6,3,1.5
					c1.2,0.9,2.2,2.1,2.6,3.3c0.4,1.1,0.3,2.2,0,3.1s-0.8,1.6-1.3,2.3c-0.1,0.5-0.5,0.9-1.1,0.7c-4.5-1.8-9-3.6-13.6-5.4
					C455.8,25.2,456.4,23.6,457.4,24"/>
			</g>
			<g>
				<defs>
					<path id="SVGID_35_" d="M449.3,18.5l1.8,8.5h-52.8v21.2H428c0.6,0,1,0.4,1,1v72.4h25.5V85.1c0-0.6,32.8,12.7,33.3,12.7
						l5.7-39.2l-26.9-43.4L449.3,18.5z"/>
				</defs>
				<clipPath id="SVGID_36_">
					<use xlink:href="#SVGID_35_"  style="overflow:visible;"/>
				</clipPath>
				<path class="st19" d="M457.4,24c0.3,0.1,0.6,0.2,0.8,0.3c0.2-0.7,2-4.3,5.2-4.8c1.6-0.2,2.8,0.3,3.7,0.6c1.4,0.5,1.9,0.6,3,1.5
					c1.2,0.9,2.2,2.1,2.6,3.3c0.4,1.1,0.3,2.2,0,3.1s-0.8,1.6-1.3,2.3c-0.1,0.5-0.5,0.9-1.1,0.7c-4.5-1.8-9-3.6-13.6-5.4
					C455.8,25.2,456.4,23.6,457.4,24z"/>
			</g>
		</g>
		<polygon class="st20" points="490.3,64 486.2,93.6 449.1,86.6 453.4,52.8 454.4,52.8 		"/>
		<path class="st21" d="M459.1,58.3c-1,7.5-2.9,18.3-3.8,25.7"/>
		<path class="st21" d="M465.4,60.6c-0.9,7.1-2.4,17.7-3.2,24.8"/>
		<path class="st21" d="M479.1,63.9c-1.2,7.9-2.8,17.5-4,25.4"/>
		<path class="st21" d="M485,65.5c-1.2,8.1-2.5,16.1-3.7,24.2"/>
		<path class="st21" d="M472.5,62.1c-1.3,7.5-2.7,15.1-4,22.6"/>
		<path class="st21" d="M456.1,62.7c9.9,2.3,19.7,5.2,29.3,8.5"/>
		<path class="st21" d="M454.9,70.5c10.4,1.6,20.7,4.1,30.7,7.5"/>
		<line class="st21" x1="453.3" y1="78.2" x2="484.8" y2="85.7"/>
		<path class="st22" d="M472.6,89.9c0,0.4-0.2,0.9-0.5,1.2c-0.2,0.2-0.5,0.3-0.8,0.3h-0.1c-0.1,0-0.1,0-0.2,0
			c-0.3,0.1-0.6,0.2-1,0.3c-0.4,0.1-0.7-0.2-1-0.2c-0.2,0-0.5,0.1-0.8,0.1c-0.4,0-0.8-0.1-1.2-0.3c-0.2-0.1-0.5-0.2-0.7-0.3
			c-0.1,0-0.1-0.1-0.2-0.1c0,0-0.1,0-0.1-0.1c-0.1,0-0.3,0-0.4-0.1c-0.3-0.1-0.6-0.2-0.7-0.5c-0.1-0.2-0.2-0.8,0.1-0.8
			c0.4-0.1,1,0.3,1.1-0.3V89c0-0.1-0.2-0.2-0.3-0.2c-0.2,0-0.4,0-0.6,0c-0.3,0-0.5,0.1-0.8,0.1s-0.7-0.2-0.9-0.4
			c-0.1-0.1-0.2-0.4-0.2-0.5c0.6,0,1.2-0.1,1.7-0.3c0.1,0,0.2-0.1,0.3-0.1c0.3-0.2,0.5-0.4,0.8-0.5c0.5-0.3,0.9-0.7,1.4-1
			c0.3-0.2,0.4-0.5,0.7-0.7c0.5,0.1,1,0.2,1.5,0.3c0.1,0,0.1,0,0.2,0l0.8,0.1l1.3,0.3l0,0C472.1,86.1,472.6,89.3,472.6,89.9"/>
		<path class="st23" d="M472.6,89.9c0,0.4-0.2,0.9-0.5,1.2c-0.2,0.2-0.5,0.3-0.8,0.3h-0.1c-0.1,0-0.1,0-0.2,0
			c-0.3,0.1-0.6,0.2-1,0.3c-0.4,0.1-0.7-0.2-1-0.2c-0.2,0-0.5,0.1-0.8,0.1c-0.4,0-0.8-0.1-1.2-0.3c-0.2-0.1-0.5-0.2-0.7-0.3
			c-0.1,0-0.1-0.1-0.2-0.1c0,0-0.1,0-0.1-0.1c-0.1,0-0.3,0-0.4-0.1c-0.3-0.1-0.6-0.2-0.7-0.5c-0.1-0.2-0.2-0.8,0.1-0.8
			c0.4-0.1,1,0.3,1.1-0.3V89c0-0.1-0.2-0.2-0.3-0.2c-0.2,0-0.4,0-0.6,0c-0.3,0-0.5,0.1-0.8,0.1s-0.7-0.2-0.9-0.4
			c-0.1-0.1-0.2-0.4-0.2-0.5c0.6,0,1.2-0.1,1.7-0.3c0.1,0,0.2-0.1,0.3-0.1c0.3-0.2,0.5-0.4,0.8-0.5c0.5-0.3,0.9-0.7,1.4-1
			c0.3-0.2,0.4-0.5,0.7-0.7c0.5,0.1,1,0.2,1.5,0.3c0.1,0,0.1,0,0.2,0l0.8,0.1l1.3,0.3l0,0C472.1,86.1,472.6,89.3,472.6,89.9z"/>
		<path class="st22" d="M479.8,68c0.1,1.6-7.2,18.6-7.2,18.6l-3.4-0.7l-1.6-0.3l5.1-17.9L468,54.2c0,0-1.5-8.8,1.9-9.5
			c0.1,0,0.1,0,0.2,0C474.5,44.1,479.7,66.4,479.8,68"/>
		<path class="st23" d="M479.8,68c0.1,1.6-7.2,18.6-7.2,18.6l-3.4-0.7l-1.6-0.3l5.1-17.9L468,54.2c0,0-1.5-8.8,1.9-9.5
			c0.1,0,0.1,0,0.2,0C474.5,44.1,479.7,66.4,479.8,68z"/>
	</g>
</g>
</svg>
