<?xml version="1.0" encoding="utf-8"?>
<!-- Generator: Adobe Illustrator 25.2.2, SVG Export Plug-In . SVG Version: 6.00 Build 0)  -->
<svg version="1.1" id="Layer_1" xmlns="http://www.w3.org/2000/svg" xmlns:xlink="http://www.w3.org/1999/xlink" x="0px" y="0px"
	 viewBox="0 0 740.2 152.2" style="enable-background:new 0 0 740.2 152.2;" xml:space="preserve">
<style type="text/css">
	.st0{fill:none;stroke:#FFFFFF;stroke-width:2;stroke-linejoin:round;stroke-miterlimit:10;}
	.st1{clip-path:url(#SVGID_2_);fill:#3CB1C9;}
	
		.st2{clip-path:url(#SVGID_2_);fill:none;stroke:#45283B;stroke-width:0.75;stroke-linecap:round;stroke-linejoin:round;stroke-miterlimit:10;}
	.st3{clip-path:url(#SVGID_2_);fill:#45283B;}
	.st4{fill:none;stroke:#FFFFFF;stroke-width:2;stroke-miterlimit:10;}
	.st5{fill:none;stroke:#FFFFFF;stroke-width:2;stroke-linecap:round;stroke-linejoin:round;}
</style>
<path class="st0" d="M351.7,26.1h-26.4v49.3c0,9.5-1.5,15.6-4.5,19.4c-2.8,3.5-7.2,5.6-13.2,5.6c-6.7,0-11.3-2.7-14-6.4
	c-2.7-3.7-3.7-9.2-3.7-18.6V26.1h-27.5V77c0,14.2,2.5,24.4,7.6,31.5c7.3,10.3,21.2,15.8,37.1,15.8c16.2,0,29.4-5.7,36.6-15.4
	c5.3-7.1,8.1-17.2,8.1-31.9V26.1z"/>
<rect x="464" y="27.6" class="st0" width="27.5" height="96.7"/>
<path class="st0" d="M581.1,124.2h25.8V27.6h-26.4v31c0,8.1,0.1,16.4,0.3,24.6l-0.3,0.1c-4.8-6.9-9.5-13.5-14.8-20.7l-25.6-35h-25.8
	v96.7h26.4v-31c0-8.1-0.1-16.4-0.3-24.6l0.3-0.1c4.8,6.9,9.5,13.5,14.8,20.7L581.1,124.2z"/>
<g>
	<path class="st0" d="M166.6,74.4c0-14,10.5-25.1,24.2-25.1c13.6,0,24.2,11.1,24.2,25.1c0,14-10.5,25.1-24.2,25.1
		C177.1,99.5,166.6,88.5,166.6,74.4z M139.1,74.4c0,27.9,22.6,49.8,51.7,49.8c29.1,0,51.7-21.9,51.7-49.8
		c0-27.9-22.6-49.8-51.7-49.8C161.6,24.7,139.1,46.5,139.1,74.4z"/>
	<g>
		<defs>
			<path id="SVGID_1_" d="M140.1,74.4c0,27.4,22.3,48.8,50.7,48.8c28.4,0,50.7-21.4,50.7-48.8s-22.3-48.8-50.7-48.8
				C162.3,25.7,140.1,47.1,140.1,74.4"/>
		</defs>
		<clipPath id="SVGID_2_">
			<use xlink:href="#SVGID_1_"  style="overflow:visible;"/>
		</clipPath>
		<path class="st1" d="M209.5,109.2c-0.1-1.5-0.9-3-1.6-4.3c-1.6-3.1-3.3-6.3-4.9-9.5c-1.8,2-3.6,4-5.5,6c1.2,1.6,2.6,3.9,3.5,5.5
			c0.6,1,1.2,2.1,1,3.2c-0.1,0.9-0.6,1.6-1.1,2.3c-1.6,2.4-3.8,4.3-6.4,5.4c-3,1.3-0.5,6.6,1.9,7.8c0.9-0.8,0.3-2.4,0.5-3.5
			c0.1-0.5,0.5-0.8,0.8-1.1c2.4-1.7,5.2-2.8,7.6-4.5C207.7,114.9,209.7,112.2,209.5,109.2"/>
		<path class="st2" d="M209.5,109.2c-0.1-1.5-0.9-3-1.6-4.3c-1.6-3.1-3.3-6.3-4.9-9.5c-1.8,2-3.6,4-5.5,6c1.2,1.6,2.6,3.9,3.5,5.5
			c0.6,1,1.2,2.1,1,3.2c-0.1,0.9-0.6,1.6-1.1,2.3c-1.6,2.4-3.8,4.3-6.4,5.4c-3,1.3-0.5,6.6,1.9,7.8c0.9-0.8,0.3-2.4,0.5-3.5
			c0.1-0.5,0.5-0.8,0.8-1.1c2.4-1.7,5.2-2.8,7.6-4.5C207.7,114.9,209.7,112.2,209.5,109.2z"/>
		<path class="st1" d="M169.1,88.6c-2.7-0.4-4.9-2.5-6.2-4.9c-1.2-2.4-2.4-5.5-2.8-8.2c-0.4-3.1-2-6.1-1.3-10.4
			c0.4-2.3,0.1-3.1-1.1-5.2c-0.2-0.3-2.2-2-2.6-2.1c-1.1-0.4,0,3.5,0,4.7c0,0.7,0.9,3,1,3.7c0.1,2.8-0.1,11.1,0.2,13.7
			c0.4,3.8,1.2,7.7,3,11.1s4.8,6.4,8.5,7.4c0.9-3.2,1.5-6.6,1.7-9.9"/>
		<path class="st2" d="M169.1,88.6c-2.7-0.4-4.9-2.5-6.2-4.9c-1.2-2.4-2.4-5.5-2.8-8.2c-0.4-3.1-2-6.1-1.3-10.4
			c0.4-2.3,0.1-3.1-1.1-5.2c-0.2-0.3-2.2-2-2.6-2.1c-1.1-0.4,0,3.5,0,4.7c0,0.7,0.9,3,1,3.7c0.1,2.8-0.1,11.1,0.2,13.7
			c0.4,3.8,1.2,7.7,3,11.1s4.8,6.4,8.5,7.4c0.9-3.2,1.5-6.6,1.7-9.9"/>
		<path class="st1" d="M194.9,129.4c0.5-2,2.8-15.6,3.5-26.2c0.2,0.1,0.4,0.3,0.5,0.4c1.7-1.8,3.4-3.7,5.1-5.5
			c0.2-0.2,0.4-0.4,0.4-0.7c0.1-0.3-0.1-0.6-0.2-0.9c-0.9-1.7-1.8-3.4-2.8-5.1c-0.9-1.5-1.5-3.6-3.2-4.6c-1.4-0.8-3.3-0.5-4.8-0.4
			c-1.1,0.1-2.1,0.1-3.2,0c-0.6,0-1.3,0-1.9-0.1c-0.3,0-1.7-0.3-1.9-0.2c-1.4,1.1-1.7,2.1-3.5,2.1c-2.3,0-3.9-2.1-3.9-2.1
			c-0.3-0.1-10.8,1.4-15-1.9c-1.7,2.6-4.5,9-4.3,9.2c2.2,2.3,4.6,4.7,7.6,5.5c0.1,9.8,0,21.1,1.2,27.8"/>
		<path class="st2" d="M194.9,129.4c0.5-2,2.8-15.6,3.5-26.2c0.2,0.1,0.4,0.3,0.5,0.4c1.7-1.8,3.4-3.7,5.1-5.5
			c0.2-0.2,0.4-0.4,0.4-0.7c0.1-0.3-0.1-0.6-0.2-0.9c-0.9-1.7-1.8-3.4-2.8-5.1c-0.9-1.5-1.5-3.6-3.2-4.6c-1.4-0.8-3.3-0.5-4.8-0.4
			c-1.1,0.1-2.1,0.1-3.2,0c-0.6,0-1.3,0-1.9-0.1c-0.3,0-1.7-0.3-1.9-0.2c-1.4,1.1-1.7,2.1-3.5,2.1c-2.3,0-3.9-2.1-3.9-2.1
			c-0.3-0.1-10.8,1.4-15-1.9c-1.7,2.6-4.5,9-4.3,9.2c2.2,2.3,4.6,4.7,7.6,5.5c0.1,9.8,0,21.1,1.2,27.8"/>
		<path class="st1" d="M188.5,76.9c0.6,0,1.2-0.1,1.7-0.6c0.7-0.6,0.7-2.3-0.1-2.7c-0.3-0.2-0.6-0.2-1-0.3c0.1-2.2-0.3-4.3-1.1-6.3
			c-0.7-1.7-2-3.4-3.7-4c-0.9-0.7-2.3-0.7-3.3-0.1c-1,0.6-1.7,1.6-2.3,2.6c-0.8,1.6-1.3,3.4-1.6,5.1c-0.3,1.9-0.4,3.9,0,5.7
			c0.3,1.5,1.1,3,2.3,4.1c0.1,2.2,0.3,5-2.8,6.3c-0.1,0-0.2,0.1-0.3,0.1c2,1.4,4.7,1.8,7,1.7c2.1,0,4.2-0.4,6-1.3
			c-2.1-1.4-2.7-4.4-3-6.6c0.8-0.7,1.4-1.8,1.8-2.7C188.2,77.7,188.4,77.3,188.5,76.9"/>
		<path class="st2" d="M188.5,76.9c0.6,0,1.2-0.1,1.7-0.6c0.7-0.6,0.7-2.3-0.1-2.7c-0.3-0.2-0.6-0.2-1-0.3c0.1-2.2-0.3-4.3-1.1-6.3
			c-0.7-1.7-2-3.4-3.7-4c-0.9-0.7-2.3-0.7-3.3-0.1c-1,0.6-1.7,1.6-2.3,2.6c-0.8,1.6-1.3,3.4-1.6,5.1c-0.3,1.9-0.4,3.9,0,5.7
			c0.3,1.5,1.1,3,2.3,4.1c0.1,2.2,0.3,5-2.8,6.3c-0.1,0-0.2,0.1-0.3,0.1c2,1.4,4.7,1.8,7,1.7c2.1,0,4.2-0.4,6-1.3
			c-2.1-1.4-2.7-4.4-3-6.6c0.8-0.7,1.4-1.8,1.8-2.7C188.2,77.7,188.4,77.3,188.5,76.9z"/>
		<path class="st3" d="M189.1,73.8c0-0.9,0.9-1.2,1.3-1.7c0.4-0.6,0.5-1.5,0.1-2c-0.3-0.3-0.7-0.5-0.9-0.9c-0.2-0.4,0-0.8,0.2-1.2
			c0.2-0.3,0.6-0.6,0.7-1c0.3-0.7,0-1.7-0.7-2.1c-0.5-0.3-1.2-0.3-1.5-0.8c-0.2-0.3-0.2-0.6-0.2-0.9c-0.1-0.9-0.6-1.7-1.3-2.1
			c-0.7-0.5-1.7-0.6-2.5-0.2c-0.4,0.2-0.8,0.5-1.3,0.4c-0.6-0.1-1-0.6-1.5-0.9c-0.5-0.2-1-0.2-1.5,0c-0.5,0.2-0.8,0.7-0.9,1.2
			c-0.1,0.5-0.1,1.1-0.4,1.5c-0.5,0.6-1.5,0.4-2,0.9c-0.6,0.5-0.5,1.6-0.1,2.3c0.3,0.4,0.7,0.8,0.6,1.2c0,0.5-0.6,0.9-1,1.1
			c-0.5,0.2-1.1,0.5-1.3,1c-0.3,0.6,0.2,1.3,0.7,1.8c0.5,0.5,1.1,0.9,1.2,1.6c0.1,0.2,0,0.5,0,0.8c-0.1,1.2,0.3,2.9,0.6,3.9
			c0-2.6,0-5.3,0.6-7.9c0.1-0.3,0.1-0.6,0.3-0.9c0.4-0.7,1.3-0.9,2.1-0.6c0.7,0.3,1.4,1,2.1,0.7c0.4-0.1,0.7-0.6,1.1-0.8
			c0.7-0.4,2-0.2,2.3,0.6c0.4,1.3,1.5,1.2,1.8,2c0.4,1.2,0.4,4.7,0.4,5.2c0,0.7,0.1,1.3,0.3,2C188.5,76.2,188.7,75.6,189.1,73.8"/>
	</g>
</g>
<polygon class="st4" points="29.8,124.2 57.3,124.2 57.3,85.7 91.7,85.7 91.7,124.2 119.3,124.2 119.3,27.6 91.7,27.6 91.7,62.4 
	57.3,62.4 57.3,27.6 29.8,27.6 "/>
<path class="st0" d="M374.4,117.3c9.7,4.7,22.2,6.9,32,6.9c22.4,0,37.8-11.9,37.8-31.4c0-16.3-10.5-23.8-25.6-29.1
	c-11.7-4.1-19.2-4.1-19.2-10.4c0-4.3,3.5-5.9,8.5-5.9c6.8,0,19.6,3.1,31.2,9.6V31.7c-9.1-4.5-21.5-7.1-31.5-7.1
	c-21.6,0-36.2,11.9-36.2,30.7c0,15.6,10.1,22.8,24.8,27.9c12.3,4.3,20,4.3,20,11.2c0,4.9-4,6.9-9.6,6.9c-6.7,0-20.3-2.9-32.3-9.9
	V117.3z"/>
<g>
	<path class="st5" d="M711.3,117.3c-9,4.3-20.9,7-32.6,7c-33,0-54.9-21.2-54.9-49.4c0-28.8,22.9-50.5,54.4-50.5
		c11.4,0,21.8,2.8,29.9,6.8v26.7c-8.6-5.2-19-9-28.8-9c-17.3,0-27.9,11.4-27.9,26c0,14.3,10.3,26.1,27.3,26.1c2,0,4.4-0.3,5.9-0.7
		V89.9h-13.3V69.7h39.9V117.3z"/>
</g>
</svg>
