<?xml version="1.0" encoding="utf-8"?>
<!-- Generator: Adobe Illustrator 25.2.2, SVG Export Plug-In . SVG Version: 6.00 Build 0)  -->
<svg version="1.1" id="Layer_1" xmlns="http://www.w3.org/2000/svg" xmlns:xlink="http://www.w3.org/1999/xlink" x="0px" y="0px"
	 viewBox="0 0 959.1 239.4" style="enable-background:new 0 0 959.1 239.4;" xml:space="preserve">
<style type="text/css">
	.st0{fill:#3CB1C9;}
	.st1{fill:none;stroke:#FFFFFF;stroke-width:2;stroke-linejoin:round;stroke-miterlimit:10;}
	.st2{fill:none;stroke:#FFFFFF;stroke-width:2;stroke-miterlimit:10;}
	.st3{clip-path:url(#SVGID_2_);fill:#45283B;}
	.st4{clip-path:url(#SVGID_4_);fill:#3CB1C9;}
	
		.st5{clip-path:url(#SVGID_6_);fill:none;stroke:#45283B;stroke-width:0.75;stroke-linecap:round;stroke-linejoin:round;stroke-miterlimit:10;}
	.st6{clip-path:url(#SVGID_8_);fill:#3CB1C9;}
	
		.st7{clip-path:url(#SVGID_10_);fill:none;stroke:#45283B;stroke-width:0.75;stroke-linecap:round;stroke-linejoin:round;stroke-miterlimit:10;}
	.st8{clip-path:url(#SVGID_12_);fill:#3CB1C9;}
	
		.st9{clip-path:url(#SVGID_14_);fill:none;stroke:#45283B;stroke-width:0.75;stroke-linecap:round;stroke-linejoin:round;stroke-miterlimit:10;}
	.st10{clip-path:url(#SVGID_16_);fill:#45283B;}
	.st11{clip-path:url(#SVGID_18_);fill:#3CB1C9;}
	
		.st12{clip-path:url(#SVGID_20_);fill:none;stroke:#45283B;stroke-width:0.75;stroke-linecap:round;stroke-linejoin:round;stroke-miterlimit:10;}
	.st13{clip-path:url(#SVGID_22_);fill:#3CB1C9;}
	
		.st14{clip-path:url(#SVGID_24_);fill:none;stroke:#45283B;stroke-width:0.75;stroke-linecap:round;stroke-linejoin:round;stroke-miterlimit:10;}
	.st15{clip-path:url(#SVGID_26_);fill:#3CB1C9;}
	
		.st16{clip-path:url(#SVGID_28_);fill:none;stroke:#45283B;stroke-width:0.75;stroke-linecap:round;stroke-linejoin:round;stroke-miterlimit:10;}
	.st17{clip-path:url(#SVGID_30_);fill:#3CB1C9;}
	
		.st18{clip-path:url(#SVGID_32_);fill:none;stroke:#45283B;stroke-width:0.75;stroke-linecap:round;stroke-linejoin:round;stroke-miterlimit:10;}
	.st19{clip-path:url(#SVGID_34_);fill:#3CB1C9;}
	
		.st20{clip-path:url(#SVGID_36_);fill:none;stroke:#45283B;stroke-width:0.75;stroke-linecap:round;stroke-linejoin:round;stroke-miterlimit:10;}
	.st21{clip-path:url(#SVGID_38_);fill:#45283B;}
	
		.st22{clip-path:url(#SVGID_40_);fill:none;stroke:#45283B;stroke-width:0.75;stroke-linecap:round;stroke-linejoin:round;stroke-miterlimit:10;}
	.st23{clip-path:url(#SVGID_42_);fill:#45283B;}
	.st24{clip-path:url(#SVGID_44_);fill:#3CB1C9;}
	
		.st25{clip-path:url(#SVGID_46_);fill:none;stroke:#45283B;stroke-width:0.75;stroke-linecap:round;stroke-linejoin:round;stroke-miterlimit:10;}
	.st26{clip-path:url(#SVGID_48_);fill:#3CB1C9;}
	
		.st27{clip-path:url(#SVGID_50_);fill:none;stroke:#45283B;stroke-width:0.75;stroke-linecap:round;stroke-linejoin:round;stroke-miterlimit:10;}
	
		.st28{clip-path:url(#SVGID_52_);fill:none;stroke:#45283B;stroke-width:0.75;stroke-linecap:round;stroke-linejoin:round;stroke-miterlimit:10;}
	.st29{clip-path:url(#SVGID_54_);fill:#45283B;}
	.st30{clip-path:url(#SVGID_56_);fill:#3CB1C9;}
	
		.st31{clip-path:url(#SVGID_58_);fill:none;stroke:#45283B;stroke-width:0.75;stroke-linecap:round;stroke-linejoin:round;stroke-miterlimit:10;}
	.st32{clip-path:url(#SVGID_60_);fill:#3CB1C9;}
	
		.st33{clip-path:url(#SVGID_62_);fill:none;stroke:#45283B;stroke-width:0.75;stroke-linecap:round;stroke-linejoin:round;stroke-miterlimit:10;}
	.st34{clip-path:url(#SVGID_64_);fill:#3CB1C9;}
	
		.st35{clip-path:url(#SVGID_66_);fill:none;stroke:#45283B;stroke-width:0.75;stroke-linecap:round;stroke-linejoin:round;stroke-miterlimit:10;}
	.st36{clip-path:url(#SVGID_68_);fill:#45283B;}
	.st37{clip-path:url(#SVGID_70_);fill:#45283B;}
	.st38{clip-path:url(#SVGID_72_);fill:#3CB1C9;}
	
		.st39{clip-path:url(#SVGID_74_);fill:none;stroke:#45283B;stroke-width:0.75;stroke-linecap:round;stroke-linejoin:round;stroke-miterlimit:10;}
	.st40{clip-path:url(#SVGID_76_);fill:#3CB1C9;}
	
		.st41{clip-path:url(#SVGID_78_);fill:none;stroke:#45283B;stroke-width:0.75;stroke-linecap:round;stroke-linejoin:round;stroke-miterlimit:10;}
	.st42{clip-path:url(#SVGID_80_);fill:#3CB1C9;}
	
		.st43{clip-path:url(#SVGID_82_);fill:none;stroke:#45283B;stroke-width:0.75;stroke-linecap:round;stroke-linejoin:round;stroke-miterlimit:10;}
	.st44{clip-path:url(#SVGID_84_);fill:#3CB1C9;}
	
		.st45{clip-path:url(#SVGID_86_);fill:none;stroke:#45283B;stroke-width:0.75;stroke-linecap:round;stroke-linejoin:round;stroke-miterlimit:10;}
	.st46{clip-path:url(#SVGID_88_);fill:#3CB1C9;}
	
		.st47{clip-path:url(#SVGID_90_);fill:none;stroke:#45283B;stroke-width:0.75;stroke-linecap:round;stroke-linejoin:round;stroke-miterlimit:10;}
	.st48{clip-path:url(#SVGID_92_);fill:#3CB1C9;}
	
		.st49{clip-path:url(#SVGID_94_);fill:none;stroke:#45283B;stroke-width:0.75;stroke-linecap:round;stroke-linejoin:round;stroke-miterlimit:10;}
	.st50{clip-path:url(#SVGID_96_);fill:#3CB1C9;}
	
		.st51{clip-path:url(#SVGID_98_);fill:none;stroke:#45283B;stroke-width:0.75;stroke-linecap:round;stroke-linejoin:round;stroke-miterlimit:10;}
	.st52{clip-path:url(#SVGID_100_);fill:#3CB1C9;}
	
		.st53{clip-path:url(#SVGID_102_);fill:none;stroke:#45283B;stroke-width:0.75;stroke-linecap:round;stroke-linejoin:round;stroke-miterlimit:10;}
	.st54{clip-path:url(#SVGID_104_);fill:#3CB1C9;}
	
		.st55{clip-path:url(#SVGID_106_);fill:none;stroke:#45283B;stroke-width:0.75;stroke-linecap:round;stroke-linejoin:round;stroke-miterlimit:10;}
	.st56{clip-path:url(#SVGID_108_);fill:#3CB1C9;}
	
		.st57{clip-path:url(#SVGID_110_);fill:none;stroke:#45283B;stroke-width:0.75;stroke-linecap:round;stroke-linejoin:round;stroke-miterlimit:10;}
	.st58{clip-path:url(#SVGID_112_);fill:#45283B;}
	.st59{fill:none;stroke:#FFFFFF;stroke-width:1.2729;stroke-linejoin:round;stroke-miterlimit:10;}
</style>
<polygon class="st0" points="25.8,94.9 30.9,92.8 35.9,94.1 33.6,101.6 27.3,98.1 "/>
<polygon class="st0" points="32.2,118.2 32.8,115.7 50.5,103.1 58.5,105 62,110 60,118.4 "/>
<polygon class="st1" points="423,118.3 487.6,118.3 487.6,95.1 450.5,95.1 450.5,79.1 480.5,79.1 480.5,57.2 450.5,57.2 450.5,44.9 
	486,44.9 486,21.7 423,21.7 "/>
<polygon class="st1" points="109.5,118.3 174.1,118.3 174.1,95.1 137,95.1 137,79.1 167.1,79.1 167.1,57.2 137,57.2 137,44.9 
	172.5,44.9 172.5,21.7 109.5,21.7 "/>
<path class="st1" d="M342.8,95.1V44.9h0.9c10.8,0,19.6,1.1,25.5,5.5c5.5,4.1,8.3,10.7,8.3,19.8c0,6.3-1.3,12.1-4.9,16.6
	c-4.1,4.9-11.2,8.4-28.7,8.4h-1.1V95.1z M315.3,118.3h28.3c23.2,0,38-4.7,47.7-13.3c9.2-8.4,13.8-20.4,13.8-34.8
	c0-16.3-5.9-29.4-16.6-37.4c-10.3-7.7-25.4-11.1-45.4-11.1h-27.8V118.3z"/>
<path class="st1" d="M609.7,114.3c9.7,4.7,22.2,6.9,32,6.9c22.4,0,37.8-11.9,37.8-31.4c0-16.3-10.5-23.8-25.6-29.1
	c-11.7-4.1-19.2-4.1-19.2-10.4c0-4.3,3.5-5.9,8.5-5.9c6.8,0,19.6,3.1,31.2,9.6V28.7c-9.1-4.5-21.5-7.1-31.5-7.1
	c-21.6,0-36.2,11.9-36.2,30.7c0,15.6,10.1,22.8,24.8,27.9c12.3,4.3,20,4.3,20,11.2c0,4.9-4,6.9-9.6,6.9c-6.7,0-20.3-2.9-32.3-9.9
	L609.7,114.3L609.7,114.3z"/>
<path class="st1" d="M891.9,65.2V43.6h4.1c6.9,0,10.3,0.5,12.8,1.7c3.5,1.6,5.3,4.8,5.3,9.2c0,4.3-1.7,7.3-4.9,8.9
	c-2.3,1.2-6.4,1.7-12.4,1.7L891.9,65.2L891.9,65.2z M864.4,118.3h27.5V86h4.4c13.2,0,23.5-2.1,31-6.5c9.6-5.6,14.4-14.3,14.4-25.5
	c0-13.5-6.8-22.3-16.8-27.2c-7.2-3.6-16.6-5.1-29.1-5.1h-31.4L864.4,118.3L864.4,118.3z"/>
<rect x="816.2" y="21.7" class="st1" width="27.5" height="96.7"/>
<polygon class="st2" points="703.1,118.3 730.6,118.3 730.6,79.7 765.1,79.7 765.1,118.3 792.6,118.3 792.6,21.7 765.1,21.7 
	765.1,56.5 730.6,56.5 730.6,21.7 703.1,21.7 "/>
<path class="st2" d="M244.5,51c1.9,6,3.6,11.5,5.9,18l3.2,9.2h-18.7l3.3-9.2c2.3-6.3,4.1-11.9,6-18H244.5z M192.1,118.3h28.4
	l7.1-19.8h33.1l6.8,19.8h29.9l-39.1-96.7h-27.1L192.1,118.3z"/>
<polygon class="st2" points="25.1,118.4 93,118.4 93,95.2 52.6,95.2 52.6,21.7 25.1,21.7 "/>
<g>
	<g>
		<defs>
			<rect id="SVGID_1_" x="8.6" y="45.9" width="88.2" height="71.5"/>
		</defs>
		<clipPath id="SVGID_2_">
			<use xlink:href="#SVGID_1_"  style="overflow:visible;"/>
		</clipPath>
		<path class="st3" d="M36,62.9c0,0-1.8-1.7-3-2.9c-0.1-0.1-0.2-0.3-0.3-0.3c-1-1-2.8-2.3-4.5-2.2c-0.5,0-1.3,0.1-2,0.3
			c-0.3-0.2-0.8-0.2-1.4-0.1c-1.5,0.3-3.3,1.6-4,3c-0.6,1.4-0.7,3-0.5,4.6c0,0.1,0,0.3,0.1,0.4l0,0c0.6,5-1.5,11.1,3.5,16.7
			c0.7,0.8,1.8,1,3,1c0.3,0.3,0.7,0.5,1.1,0.7c-0.2-0.2-0.3-0.4-0.5-0.7c1.9-0.1,3.7-0.8,3.8-0.9s0.3-0.2,0.4-0.3
			c0.1-0.1,0.4,0,0.4,0.2c0.1,1.6,0.3,3,0,4.6c0,0.2,0.2,0.3,0.4,0.2c3-2.6,3.7-5.6,3.4-9.3c0-0.2,0.3-0.3,0.4-0.1l0,0
			c0.1,0.2,2.2-1,3.7-2.2C43.5,72.5,37.1,64.4,36,62.9"/>
	</g>
	<g>
		<defs>
			<rect id="SVGID_3_" x="8.6" y="45.9" width="88.2" height="71.5"/>
		</defs>
		<clipPath id="SVGID_4_">
			<use xlink:href="#SVGID_3_"  style="overflow:visible;"/>
		</clipPath>
		<path class="st4" d="M48,102.1c-0.9,0.2-3.1,0.6-4.2,1.8c-2.2-2.2-6-3.4-7.9-1.4c-1.3,1.3-2.1,4.4-2.7,8c-0.2,1-0.3,2.1-0.4,3.2
			c-0.1,1.1-0.2,2.3-0.3,3.5"/>
	</g>
	<g>
		<defs>
			<rect id="SVGID_5_" x="8.6" y="45.9" width="88.2" height="71.5"/>
		</defs>
		<clipPath id="SVGID_6_">
			<use xlink:href="#SVGID_5_"  style="overflow:visible;"/>
		</clipPath>
		<path class="st5" d="M48,102.1c-0.9,0.2-3.1,0.6-4.2,1.8c-2.2-2.2-6-3.4-7.9-1.4c-1.3,1.3-2.1,4.4-2.7,8c-0.2,1-0.3,2.1-0.4,3.2
			c-0.1,1.1-0.2,2.3-0.3,3.5"/>
	</g>
	<g>
		<defs>
			<rect id="SVGID_7_" x="8.6" y="45.9" width="88.2" height="71.5"/>
		</defs>
		<clipPath id="SVGID_8_">
			<use xlink:href="#SVGID_7_"  style="overflow:visible;"/>
		</clipPath>
		<path class="st6" d="M33.1,101.5c-0.4,3.9-1.4,8.2-1.1,10.4c10.2,0.4,24.4-4.7,26.4-6.9c-0.8-3.5-2.3-19.2-2.5-21.9
			c0,0-3.7-9-11.1-9.7s-11.7,1.4-14.9,3c-2.2,1.1-3.8,2.8-5.4,4.7c-3.6,4.4-0.7,11,0.1,15.9c1.8,0.7,5.8-1.5,7.8-2.6"/>
	</g>
	<g>
		<defs>
			<rect id="SVGID_9_" x="8.6" y="45.9" width="88.2" height="71.5"/>
		</defs>
		<clipPath id="SVGID_10_">
			<use xlink:href="#SVGID_9_"  style="overflow:visible;"/>
		</clipPath>
		<path class="st7" d="M33.1,101.5c-0.4,3.9-1.4,8.2-1.1,10.4c10.2,0.4,24.4-4.7,26.4-6.9c-0.8-3.5-2.3-19.2-2.5-21.9
			c0,0-3.7-9-11.1-9.7s-11.7,1.4-14.9,3c-2.2,1.1-3.8,2.8-5.4,4.7c-3.6,4.4-0.7,11,0.1,15.9c1.8,0.7,5.8-1.5,7.8-2.6"/>
	</g>
	<g>
		<defs>
			<rect id="SVGID_11_" x="8.6" y="45.9" width="88.2" height="71.5"/>
		</defs>
		<clipPath id="SVGID_12_">
			<use xlink:href="#SVGID_11_"  style="overflow:visible;"/>
		</clipPath>
		<path class="st8" d="M36.9,73.5c-1.2-0.4-2.2-1.6-2.9-3.7c0.1-0.4,0.1-0.8,0.1-1.2c-0.1-1.7-0.7-2.3-1-3.5
			c-0.1-0.3-0.1-0.5-0.2-0.8c-1.6-0.7-4.4-1.1-6.2-2.7c-0.1,0.2-0.2,0.4-0.3,0.6c-0.6,1.2-1.8,2.1-2.1,3.4s-0.5,2.6-0.6,4
			c0.7,1.2,1.7,2.7,2.8,3.5c0.9,0.6,1.6,0.9,2.2,1c0.7,1.9,0.7,2.3,0.7,2.8c0.1,2.2,6.8,7,7,7.1C36.7,79.4,37.8,73.8,36.9,73.5"/>
	</g>
	<g>
		<defs>
			<rect id="SVGID_13_" x="8.6" y="45.9" width="88.2" height="71.5"/>
		</defs>
		<clipPath id="SVGID_14_">
			<use xlink:href="#SVGID_13_"  style="overflow:visible;"/>
		</clipPath>
		<path class="st9" d="M36.9,73.5c-1.2-0.4-2.2-1.6-2.9-3.7c0.1-0.4,0.1-0.8,0.1-1.2c-0.1-1.7-0.7-2.3-1-3.5
			c-0.1-0.3-0.1-0.5-0.2-0.8c-1.6-0.7-4.4-1.1-6.2-2.7c-0.1,0.2-0.2,0.4-0.3,0.6c-0.6,1.2-1.8,2.1-2.1,3.4s-0.5,2.6-0.6,4
			c0.7,1.2,1.7,2.7,2.8,3.5c0.9,0.6,1.6,0.9,2.2,1c0.7,1.9,0.7,2.3,0.7,2.8c0.1,2.2,6.8,7,7,7.1C36.7,79.4,37.8,73.8,36.9,73.5z"/>
	</g>
	<g>
		<defs>
			<rect id="SVGID_15_" x="8.6" y="45.9" width="88.2" height="71.5"/>
		</defs>
		<clipPath id="SVGID_16_">
			<use xlink:href="#SVGID_15_"  style="overflow:visible;"/>
		</clipPath>
		<path class="st10" d="M35.1,117.4l0.5-4.4c0.2-1.5,1-2.8,2.2-3.5l16.2,2.3c0,0.3,0,0.7,0.1,1.1l0,0l0.4,4.4 M82,117.4l-0.4-4.6
			c-0.1-1.3-1-2.7-2.2-3.6c-1.1-0.9-2.4-1.2-3.6-1.1l0,0l-10.4,2c-1.2,0.2-2.2,0.6-3.2,1.1c-0.1-0.1-0.3-0.2-0.4-0.2l-6.1-0.9
			c-0.3-1.6-0.9-2.8-1.8-3.5c-1.1-1-2.7-1.3-4.8-1l-9.6,1.3c-3,0.4-5.4,2.8-5.7,5.9l-0.5,4.6 M60.1,117.4c0.4-2.9,2.7-5.1,5.5-5.5
			l0,0l10.3-1.9c0.7-0.1,1.5,0.2,2.2,0.7c0.8,0.6,1.4,1.6,1.5,2.3l0.4,4.4 M56.2,117.4l-0.4-4.6c0-0.3,0-0.5,0-0.8l4.5,0.6
			c-1.2,1.3-1.9,2.9-2.1,4.7 M42.8,108.4l6.5-0.9c1.6-0.2,2.7,0,3.4,0.6c0.5,0.4,0.8,1,1,1.9L42.8,108.4z"/>
	</g>
	<g>
		<defs>
			<rect id="SVGID_17_" x="8.6" y="45.9" width="88.2" height="71.5"/>
		</defs>
		<clipPath id="SVGID_18_">
			<use xlink:href="#SVGID_17_"  style="overflow:visible;"/>
		</clipPath>
		<path class="st11" d="M44.8,104.3c-1.6,0.6-1.6,1.1-2.1,2.4c1.8-0.2,2.5-0.3,3.2-0.4c0.8-0.1,1,0,1,0.4c-0.2,0.9-1.4,1.2-0.5,1.7
			c0.6,0,1-0.2,1.9-1.1c0.2-0.2,1.6-0.6,1.9-0.8c0.4-0.3,0.8-1.5,1.2-2"/>
	</g>
	<g>
		<defs>
			<rect id="SVGID_19_" x="8.6" y="45.9" width="88.2" height="71.5"/>
		</defs>
		<clipPath id="SVGID_20_">
			<use xlink:href="#SVGID_19_"  style="overflow:visible;"/>
		</clipPath>
		<path class="st12" d="M44.8,104.3c-1.6,0.6-1.6,1.1-2.1,2.4c1.8-0.2,2.5-0.3,3.2-0.4c0.8-0.1,1,0,1,0.4c-0.2,0.9-1.4,1.2-0.5,1.7
			c0.6,0,1-0.2,1.9-1.1c0.2-0.2,1.6-0.6,1.9-0.8c0.4-0.3,0.8-1.5,1.2-2"/>
	</g>
	<g>
		<defs>
			<rect id="SVGID_21_" x="8.6" y="45.9" width="88.2" height="71.5"/>
		</defs>
		<clipPath id="SVGID_22_">
			<use xlink:href="#SVGID_21_"  style="overflow:visible;"/>
		</clipPath>
		<path class="st13" d="M48.6,101.2c1.8-3.2,4.6-8.5,4.5-8.8c-2.2-3.7-0.5-2.3-0.8-6.6c-0.1-1.7,0.2-0.7,1.7,0.2
			c2,0.9,0.9,0.5,1.7,2.5c1.3,3.2,2,1.9,1.5,5.7c0.1,0.1,0.1,0.1,0.2,0.2c0.3,0.7-1.4,6.7-6.1,10.9"/>
	</g>
	<g>
		<defs>
			<rect id="SVGID_23_" x="8.6" y="45.9" width="88.2" height="71.5"/>
		</defs>
		<clipPath id="SVGID_24_">
			<use xlink:href="#SVGID_23_"  style="overflow:visible;"/>
		</clipPath>
		<path class="st14" d="M48.6,101.2c1.8-3.2,4.6-8.5,4.5-8.8c-2.2-3.7-0.5-2.3-0.8-6.6c-0.1-1.7,0.2-0.7,1.7,0.2
			c2,0.9,0.9,0.5,1.7,2.5c1.3,3.2,2,1.9,1.5,5.7c0.1,0.1,0.1,0.1,0.2,0.2c0.3,0.7-1.4,6.7-6.1,10.9"/>
	</g>
	<g>
		<defs>
			<rect id="SVGID_25_" x="8.6" y="45.9" width="88.2" height="71.5"/>
		</defs>
		<clipPath id="SVGID_26_">
			<use xlink:href="#SVGID_25_"  style="overflow:visible;"/>
		</clipPath>
		<path class="st15" d="M84.9,117.4c-0.3-2.6-0.7-4.9-0.9-6.4c-0.3-1.7-2.7-11-3.3-10.5c0.1,0-0.7,0.5-2,1.1c0-0.2,0-0.4,0-0.5
			c-0.3-6.1,0.8-7.6-1.4-13.3c-0.7-1.9-2-5.8-3-7c-1.5-1.5-4.6-2.2-7.3-2.6c-0.3,0-0.6-0.1-0.9-0.1c-0.4-0.1-0.8-0.1-1.2-0.2
			c-3.3-0.4-6.5,0.2-9.7,0.8c-3.5,0.6-6.5,4.1-5.4,7.9c1.4,4.8,3.2,8.6,4.7,9.3c1.7,0.9,4.1,3.6,5.1,6c-0.8,5.2-1.4,10.4-1.8,15.6"
			/>
	</g>
	<g>
		<defs>
			<rect id="SVGID_27_" x="8.6" y="45.9" width="88.2" height="71.5"/>
		</defs>
		<clipPath id="SVGID_28_">
			<use xlink:href="#SVGID_27_"  style="overflow:visible;"/>
		</clipPath>
		<path class="st16" d="M84.9,117.4c-0.3-2.6-0.7-4.9-0.9-6.4c-0.3-1.7-2.7-11-3.3-10.5c0.1,0-0.7,0.5-2,1.1c0-0.2,0-0.4,0-0.5
			c-0.3-6.1,0.8-7.6-1.4-13.3c-0.7-1.9-2-5.8-3-7c-1.5-1.5-4.6-2.2-7.3-2.6c-0.3,0-0.6-0.1-0.9-0.1c-0.4-0.1-0.8-0.1-1.2-0.2
			c-3.3-0.4-6.5,0.2-9.7,0.8c-3.5,0.6-6.5,4.1-5.4,7.9c1.4,4.8,3.2,8.6,4.7,9.3c1.7,0.9,4.1,3.6,5.1,6c-0.8,5.2-1.4,10.4-1.8,15.6"
			/>
	</g>
	<g>
		<defs>
			<rect id="SVGID_29_" x="8.6" y="45.9" width="88.2" height="71.5"/>
		</defs>
		<clipPath id="SVGID_30_">
			<use xlink:href="#SVGID_29_"  style="overflow:visible;"/>
		</clipPath>
		<path class="st17" d="M57.7,76.4c0.4,1.4,4.1,1.7,5,3.5c1.4,2.9-1.1,8.5-4.1,7.9c-2.6-0.6-5.3-5.7-4.1-8.6
			C55.4,76.8,55.3,76.3,57.7,76.4"/>
	</g>
	<g>
		<defs>
			<rect id="SVGID_31_" x="8.6" y="45.9" width="88.2" height="71.5"/>
		</defs>
		<clipPath id="SVGID_32_">
			<use xlink:href="#SVGID_31_"  style="overflow:visible;"/>
		</clipPath>
		<path class="st18" d="M57.7,76.4c0.4,1.4,4.1,1.7,5,3.5c1.4,2.9-1.1,8.5-4.1,7.9c-2.6-0.6-5.3-5.7-4.1-8.6
			C55.4,76.8,55.3,76.3,57.7,76.4z"/>
	</g>
	<g>
		<defs>
			<rect id="SVGID_33_" x="8.6" y="45.9" width="88.2" height="71.5"/>
		</defs>
		<clipPath id="SVGID_34_">
			<use xlink:href="#SVGID_33_"  style="overflow:visible;"/>
		</clipPath>
		<path class="st19" d="M54.8,66.4c-4.1-0.3-8.1,1.5-8.4,6.2s3.6,11.6,6.8,11.8c1.4,0.1,2.9-0.8,4.1-2.2"/>
	</g>
	<g>
		<defs>
			<rect id="SVGID_35_" x="8.6" y="45.9" width="88.2" height="71.5"/>
		</defs>
		<clipPath id="SVGID_36_">
			<use xlink:href="#SVGID_35_"  style="overflow:visible;"/>
		</clipPath>
		<path class="st20" d="M54.8,66.4c-4.1-0.3-8.1,1.5-8.4,6.2s3.6,11.6,6.8,11.8c1.4,0.1,2.9-0.8,4.1-2.2"/>
	</g>
	<g>
		<defs>
			<rect id="SVGID_37_" x="8.6" y="45.9" width="88.2" height="71.5"/>
		</defs>
		<clipPath id="SVGID_38_">
			<use xlink:href="#SVGID_37_"  style="overflow:visible;"/>
		</clipPath>
		<path class="st21" d="M61.7,70.7c-0.5-0.3-0.7-0.8-0.7-1.4s-0.2-1.2-0.6-1.7c-0.7-0.9-1.9-1.7-2.9-1.5c-0.4,0.1-0.9,0-1.3-0.3
			c-1.5-1.2-3.5-2.2-5.5,0.5c-0.3,0-0.5,0-0.7,0.1c-2.1,0.4-3.9,1.2-3.6,3.3c0.1,0.9-0.8,1.7-1.4,2.6c-0.2,0.3-0.3,0.6-0.3,0.9
			c-0.2,1.7,1.5,4.4,2.6,4c0.4-0.5-0.9-1.4,0.1-2.5c0.2-0.3,0.6-0.4,0.9-0.5c0.5-0.2,0.9-0.6,0.5-1.8c-0.2-0.7,0.4,0.2,2.6-0.1
			c0.3,0.1,0.6,0.3,0.8,0.5c0.5,0.7,1.3,1,2.5,0.7c0.4-0.1,0.8-0.1,1,0c1.1,0.4,0.5,2.6,0.9,3.2c0.7,0.9,2.1,0.8,2.5,1.7
			c0.6,1.1,2.2,1.1,2.8,0c0.4-0.8,0.6-1.7,0.5-2.4c-0.1-0.5-0.1-1,0.2-1.4C63.6,72.9,62.6,71.3,61.7,70.7"/>
	</g>
	<g>
		<defs>
			<rect id="SVGID_39_" x="8.6" y="45.9" width="88.2" height="71.5"/>
		</defs>
		<clipPath id="SVGID_40_">
			<use xlink:href="#SVGID_39_"  style="overflow:visible;"/>
		</clipPath>
		<path class="st22" d="M26.3,97.3c1.8,1.2,2.1,1.8,7.4,4.3c1.8,0.8,4.1,1.9,7.1,3.2c0,0,1.3,0,2.5-0.2s2.3-0.6,3-0.1
			c1.3,0.9,3.9,1,4.8,0.4s-3.2-4.1-4-4.6c-0.7-0.4-4.7,1.4-5.4,1c-1.7-1-7.7-5.5-9.4-6.8"/>
	</g>
	<g>
		<defs>
			<rect id="SVGID_41_" x="8.6" y="45.9" width="88.2" height="71.5"/>
		</defs>
		<clipPath id="SVGID_42_">
			<use xlink:href="#SVGID_41_"  style="overflow:visible;"/>
		</clipPath>
		<path class="st23" d="M81.5,112.8c-0.1-1.3-1-2.7-2.2-3.6c-1.1-0.9-2.4-1.2-3.6-1.1l0,0l-10.3,2c-1.2,0.2-2.2,0.6-3.2,1.1
			c-0.1-0.1-0.3-0.2-0.4-0.2l-5.7-0.8c-0.1,0.8-0.3,1.5-0.6,2.3c0.1,0,0.3,0,0.4,0.1c0-0.2,0-0.3,0-0.5l4.5,0.6
			c-1.2,1.3-1.9,2.9-2.1,4.7h1.9c0.4-2.9,2.7-5.1,5.5-5.5l0,0L76,110c0.7-0.1,1.5,0.2,2.2,0.7c0.8,0.6,1.4,1.6,1.5,2.3l0.4,4.4h1.8
			L81.5,112.8z"/>
	</g>
	<g>
		<defs>
			<rect id="SVGID_43_" x="8.6" y="45.9" width="88.2" height="71.5"/>
		</defs>
		<clipPath id="SVGID_44_">
			<use xlink:href="#SVGID_43_"  style="overflow:visible;"/>
		</clipPath>
		<path class="st24" d="M74.2,80.7c2,1.4,4.4,4.4,6.4,6.9c1.8,2.2,5.7,6.8,5.7,8.5c-0.5,1.7-1.7,3.3-4,5.9c-0.8,0.9-2.9,3-5.7,4.5
			c-1.1-0.9-2.6-2.2-4-2.1c2.5-4.8,2.8-6.1,5-8c-1.9,0.5-4-3.5-4.6-4.6"/>
	</g>
	<g>
		<defs>
			<rect id="SVGID_45_" x="8.6" y="45.9" width="88.2" height="71.5"/>
		</defs>
		<clipPath id="SVGID_46_">
			<use xlink:href="#SVGID_45_"  style="overflow:visible;"/>
		</clipPath>
		<path class="st25" d="M74.2,80.7c2,1.4,4.4,4.4,6.4,6.9c1.8,2.2,5.7,6.8,5.7,8.5c-0.5,1.7-1.7,3.3-4,5.9c-0.8,0.9-2.9,3-5.7,4.5
			c-1.1-0.9-2.6-2.2-4-2.1c2.5-4.8,2.8-6.1,5-8c-1.9,0.5-4-3.5-4.6-4.6"/>
	</g>
	<g>
		<defs>
			<rect id="SVGID_47_" x="8.6" y="45.9" width="88.2" height="71.5"/>
		</defs>
		<clipPath id="SVGID_48_">
			<use xlink:href="#SVGID_47_"  style="overflow:visible;"/>
		</clipPath>
		<path class="st26" d="M76.6,106.5c-0.1,0.1-0.2,0.3-0.3,0.4c-0.1,0.2,0.3,3.3-0.3,3.6c-1.5,1.7-5.4,1.7-6.1,1.2
			c-0.3-0.2-0.7-1,0.6-1c0.3-0.1,0.6-0.3,0.4-1c-0.3-0.9-0.9-0.2-1.6-0.2c0.3-1,0.2-2.5,2.8-4.2c0.2-0.3,0.4-0.7,0.5-1
			C74.1,104.3,75.6,105.6,76.6,106.5"/>
	</g>
	<g>
		<defs>
			<rect id="SVGID_49_" x="8.6" y="45.9" width="88.2" height="71.5"/>
		</defs>
		<clipPath id="SVGID_50_">
			<use xlink:href="#SVGID_49_"  style="overflow:visible;"/>
		</clipPath>
		<path class="st27" d="M76.6,106.5c-0.1,0.1-0.2,0.3-0.3,0.4c-0.1,0.2,0.3,3.3-0.3,3.6c-1.5,1.7-5.4,1.7-6.1,1.2
			c-0.3-0.2-0.7-1,0.6-1c0.3-0.1,0.6-0.3,0.4-1c-0.3-0.9-0.9-0.2-1.6-0.2c0.3-1,0.2-2.5,2.8-4.2c0.2-0.3,0.4-0.7,0.5-1
			C74.1,104.3,75.6,105.6,76.6,106.5z"/>
	</g>
	<g>
		<defs>
			<rect id="SVGID_51_" x="8.6" y="45.9" width="88.2" height="71.5"/>
		</defs>
		<clipPath id="SVGID_52_">
			<use xlink:href="#SVGID_51_"  style="overflow:visible;"/>
		</clipPath>
		<path class="st28" d="M33.6,65.9c-2.6,5.6-9.8,4.2-9.8,4.2l0.8,2.3c0,0,3.9,1.5,6.8,0.7c2.1-0.6,2.8-3.8,3.1-5.3"/>
	</g>
</g>
<g>
	<path class="st1" d="M535.8,62.6V43.4h5.1c6.3,0,9.5,0.5,11.7,1.6c2.8,1.3,4.7,3.9,4.7,8c0,3.6-1.3,6.1-3.9,7.6
		c-2.1,1.3-5.7,2-10.8,2C542.6,62.6,535.8,62.6,535.8,62.6z M508.3,118.1h27.5V81.4h4.3l21.5,36.7h31.1L567,77.6
		c12-5.1,17.8-14.2,17.8-26c0-12.5-6.3-20.7-15.6-25.2c-6.7-3.3-15.4-4.8-27.1-4.8h-33.8L508.3,118.1L508.3,118.1z"/>
	<g>
		<g>
			<defs>
				<path id="SVGID_53_" d="M534.8,62.6V43.4c0-0.6,0.4-1,1-1h5.1c6.1,0,9.6,0.5,12.2,1.7c3.4,1.6,5.2,4.7,5.2,8.9
					c0,3.9-1.5,6.8-4.4,8.5c-2.3,1.4-6,2.1-11.3,2.1h-6.8C535.2,63.6,534.8,63.2,534.8,62.6 M509.3,22.5v94.6h25.5V81.4
					c0-0.6,0.4-1,1-1h4.3c0.4,0,0.7,0.2,0.9,0.5l21.2,36.2h28.7c0,0,12.1-40.9,12.1-52.8c0-11.1-24.4-32.4-34.3-37.2
					c-6.4-3.2-14.9-4.7-26.7-4.7h-32.7V22.5z"/>
			</defs>
			<clipPath id="SVGID_54_">
				<use xlink:href="#SVGID_53_"  style="overflow:visible;"/>
			</clipPath>
			<path class="st29" d="M569.1,64.4c-0.1,2.2,0.1,6.6,1.5,8.2c-1,0-1.6-0.2-2.9-0.3c-1.1-0.1-2.2-0.2-3.2-0.1
				c-2.3,0.1-4.6-0.1-6.9-0.4c0.6-2.6,1.1-5.3,1.5-7.9c3.2,0.2,6.4,0.3,9.6,0.1"/>
		</g>
		<g>
			<defs>
				<path id="SVGID_55_" d="M534.8,62.6V43.4c0-0.6,0.4-1,1-1h5.1c6.1,0,9.6,0.5,12.2,1.7c3.4,1.6,5.2,4.7,5.2,8.9
					c0,3.9-1.5,6.8-4.4,8.5c-2.3,1.4-6,2.1-11.3,2.1h-6.8C535.2,63.6,534.8,63.2,534.8,62.6 M509.3,22.5v94.6h25.5V81.4
					c0-0.6,0.4-1,1-1h4.3c0.4,0,0.7,0.2,0.9,0.5l21.2,36.2h28.7c0,0,12.1-40.9,12.1-52.8c0-11.1-24.4-32.4-34.3-37.2
					c-6.4-3.2-14.9-4.7-26.7-4.7h-32.7V22.5z"/>
			</defs>
			<clipPath id="SVGID_56_">
				<use xlink:href="#SVGID_55_"  style="overflow:visible;"/>
			</clipPath>
			<path class="st30" d="M565.2,68.7c-0.1,0.8-0.4,4.1-0.5,4.1c-0.6,0-1.8-0.2-2.4-0.2c0.2-1.1,0.8-3.3,1-4.4c0-0.1,0-0.2,0.1-0.2
				s0.1,0,0.2,0c0.7,0.1,1.4,0.3,2,0.5"/>
		</g>
		<g>
			<defs>
				<path id="SVGID_57_" d="M534.8,62.6V43.4c0-0.6,0.4-1,1-1h5.1c6.1,0,9.6,0.5,12.2,1.7c3.4,1.6,5.2,4.7,5.2,8.9
					c0,3.9-1.5,6.8-4.4,8.5c-2.3,1.4-6,2.1-11.3,2.1h-6.8C535.2,63.6,534.8,63.2,534.8,62.6 M509.3,22.5v94.6h25.5V81.4
					c0-0.6,0.4-1,1-1h4.3c0.4,0,0.7,0.2,0.9,0.5l21.2,36.2h28.7c0,0,12.1-40.9,12.1-52.8c0-11.1-24.4-32.4-34.3-37.2
					c-6.4-3.2-14.9-4.7-26.7-4.7h-32.7V22.5z"/>
			</defs>
			<clipPath id="SVGID_58_">
				<use xlink:href="#SVGID_57_"  style="overflow:visible;"/>
			</clipPath>
			<path class="st31" d="M565.2,68.7c-0.1,0.8-0.4,4.1-0.5,4.1c-0.6,0-1.8-0.2-2.4-0.2c0.2-1.1,0.8-3.3,1-4.4c0-0.1,0-0.2,0.1-0.2
				s0.1,0,0.2,0c0.7,0.1,1.4,0.3,2,0.5"/>
		</g>
		<g>
			<defs>
				<path id="SVGID_59_" d="M534.8,62.6V43.4c0-0.6,0.4-1,1-1h5.1c6.1,0,9.6,0.5,12.2,1.7c3.4,1.6,5.2,4.7,5.2,8.9
					c0,3.9-1.5,6.8-4.4,8.5c-2.3,1.4-6,2.1-11.3,2.1h-6.8C535.2,63.6,534.8,63.2,534.8,62.6 M509.3,22.5v94.6h25.5V81.4
					c0-0.6,0.4-1,1-1h4.3c0.4,0,0.7,0.2,0.9,0.5l21.2,36.2h28.7c0,0,12.1-40.9,12.1-52.8c0-11.1-24.4-32.4-34.3-37.2
					c-6.4-3.2-14.9-4.7-26.7-4.7h-32.7V22.5z"/>
			</defs>
			<clipPath id="SVGID_60_">
				<use xlink:href="#SVGID_59_"  style="overflow:visible;"/>
			</clipPath>
			<path class="st32" d="M581.2,74.6c-3-1.2-3.4-4.4-3.5-6.7c1.1-0.7,1.9-2.1,2.3-3.2c0.3-0.7,0.5-1.4,0.7-2.1
				c0.4-0.1,0.7-0.2,1-0.5c0.7-0.6,0.7-2.3-0.1-2.8c-0.1-0.1-0.3-0.1-0.4-0.2c0-2-0.4-4-1.2-5.8s-2-3.5-3.8-4.1
				c-0.9-0.7-2.3-0.7-3.3-0.1s-1.8,1.6-2.3,2.7c-0.8,1.6-1.3,3.4-1.6,5.3c-0.1,0.7-0.2,1.4-0.2,2.1c-0.2,0.1-0.4,0.1-0.6,0.2
				c-0.8,0.5-0.7,2.2,0,2.8c0.2,0.2,0.5,0.3,0.8,0.4c0,0.1,0,0.2,0.1,0.4c0.4,1.9,1.5,3.7,3.1,4.8c0,2.2,0.2,4.8-2.9,5.9
				c-0.6,0.2-1.2,0.4-1.8,0.5c0.1,2.2,0.1,4.5-0.1,6.8c3.5,2.4,7.1,4.5,9.1,4.7c2.1,0.2,3.8-0.1,5.3-0.7c0.4-3.3,0.6-6.6,0.8-10
				C581.9,74.9,581.5,74.7,581.2,74.6"/>
		</g>
		<g>
			<defs>
				<path id="SVGID_61_" d="M534.8,62.6V43.4c0-0.6,0.4-1,1-1h5.1c6.1,0,9.6,0.5,12.2,1.7c3.4,1.6,5.2,4.7,5.2,8.9
					c0,3.9-1.5,6.8-4.4,8.5c-2.3,1.4-6,2.1-11.3,2.1h-6.8C535.2,63.6,534.8,63.2,534.8,62.6 M509.3,22.5v94.6h25.5V81.4
					c0-0.6,0.4-1,1-1h4.3c0.4,0,0.7,0.2,0.9,0.5l21.2,36.2h28.7c0,0,12.1-40.9,12.1-52.8c0-11.1-24.4-32.4-34.3-37.2
					c-6.4-3.2-14.9-4.7-26.7-4.7h-32.7V22.5z"/>
			</defs>
			<clipPath id="SVGID_62_">
				<use xlink:href="#SVGID_61_"  style="overflow:visible;"/>
			</clipPath>
			<path class="st33" d="M581.2,74.6c-3-1.2-3.4-4.4-3.5-6.7c1.1-0.7,1.9-2.1,2.3-3.2c0.3-0.7,0.5-1.4,0.7-2.1
				c0.4-0.1,0.7-0.2,1-0.5c0.7-0.6,0.7-2.3-0.1-2.8c-0.1-0.1-0.3-0.1-0.4-0.2c0-2-0.4-4-1.2-5.8s-2-3.5-3.8-4.1
				c-0.9-0.7-2.3-0.7-3.3-0.1s-1.8,1.6-2.3,2.7c-0.8,1.6-1.3,3.4-1.6,5.3c-0.1,0.7-0.2,1.4-0.2,2.1c-0.2,0.1-0.4,0.1-0.6,0.2
				c-0.8,0.5-0.7,2.2,0,2.8c0.2,0.2,0.5,0.3,0.8,0.4c0,0.1,0,0.2,0.1,0.4c0.4,1.9,1.5,3.7,3.1,4.8c0,2.2,0.2,4.8-2.9,5.9
				c-0.6,0.2-1.2,0.4-1.8,0.5c0.1,2.2,0.1,4.5-0.1,6.8c3.5,2.4,7.1,4.5,9.1,4.7c2.1,0.2,3.8-0.1,5.3-0.7c0.4-3.3,0.6-6.6,0.8-10
				C581.9,74.9,581.5,74.7,581.2,74.6z"/>
		</g>
		<g>
			<defs>
				<path id="SVGID_63_" d="M534.8,62.6V43.4c0-0.6,0.4-1,1-1h5.1c6.1,0,9.6,0.5,12.2,1.7c3.4,1.6,5.2,4.7,5.2,8.9
					c0,3.9-1.5,6.8-4.4,8.5c-2.3,1.4-6,2.1-11.3,2.1h-6.8C535.2,63.6,534.8,63.2,534.8,62.6 M509.3,22.5v94.6h25.5V81.4
					c0-0.6,0.4-1,1-1h4.3c0.4,0,0.7,0.2,0.9,0.5l21.2,36.2h28.7c0,0,12.1-40.9,12.1-52.8c0-11.1-24.4-32.4-34.3-37.2
					c-6.4-3.2-14.9-4.7-26.7-4.7h-32.7V22.5z"/>
			</defs>
			<clipPath id="SVGID_64_">
				<use xlink:href="#SVGID_63_"  style="overflow:visible;"/>
			</clipPath>
			<path class="st34" d="M578.7,72.5c-1.5,1.2-1.9,2.2-3.8,2.2c-2.5,0-4.1-2.3-4.1-2.3c-0.2-0.1-4.9-0.1-8.9,0
				c-2.2,0.1-3.8,1.9-3.8,4c0.2,12-1,33,0.7,42.5c12.3,2.2,29.2,0.5,29.2,0.5c0.7-2.6,2.3-21.9,2.6-35.6"/>
		</g>
		<g>
			<defs>
				<path id="SVGID_65_" d="M534.8,62.6V43.4c0-0.6,0.4-1,1-1h5.1c6.1,0,9.6,0.5,12.2,1.7c3.4,1.6,5.2,4.7,5.2,8.9
					c0,3.9-1.5,6.8-4.4,8.5c-2.3,1.4-6,2.1-11.3,2.1h-6.8C535.2,63.6,534.8,63.2,534.8,62.6 M509.3,22.5v94.6h25.5V81.4
					c0-0.6,0.4-1,1-1h4.3c0.4,0,0.7,0.2,0.9,0.5l21.2,36.2h28.7c0,0,12.1-40.9,12.1-52.8c0-11.1-24.4-32.4-34.3-37.2
					c-6.4-3.2-14.9-4.7-26.7-4.7h-32.7V22.5z"/>
			</defs>
			<clipPath id="SVGID_66_">
				<use xlink:href="#SVGID_65_"  style="overflow:visible;"/>
			</clipPath>
			<path class="st35" d="M578.7,72.5c-1.5,1.2-1.9,2.2-3.8,2.2c-2.5,0-4.1-2.3-4.1-2.3c-0.2-0.1-4.9-0.1-8.9,0
				c-2.2,0.1-3.8,1.9-3.8,4c0.2,12-1,33,0.7,42.5c12.3,2.2,29.2,0.5,29.2,0.5c0.7-2.6,2.3-21.9,2.6-35.6"/>
		</g>
		<g>
			<defs>
				<path id="SVGID_67_" d="M534.8,62.6V43.4c0-0.6,0.4-1,1-1h5.1c6.1,0,9.6,0.5,12.2,1.7c3.4,1.6,5.2,4.7,5.2,8.9
					c0,3.9-1.5,6.8-4.4,8.5c-2.3,1.4-6,2.1-11.3,2.1h-6.8C535.2,63.6,534.8,63.2,534.8,62.6 M509.3,22.5v94.6h25.5V81.4
					c0-0.6,0.4-1,1-1h4.3c0.4,0,0.7,0.2,0.9,0.5l21.2,36.2h28.7c0,0,12.1-40.9,12.1-52.8c0-11.1-24.4-32.4-34.3-37.2
					c-6.4-3.2-14.9-4.7-26.7-4.7h-32.7V22.5z"/>
			</defs>
			<clipPath id="SVGID_68_">
				<use xlink:href="#SVGID_67_"  style="overflow:visible;"/>
			</clipPath>
			<path class="st36" d="M571.1,54.1c-0.1-0.1-0.4-0.2-0.6-0.3c-0.4-0.1-1.3-0.4-1.7-0.1c-0.1,0.1-0.2,0.2-0.3,0.3
				c-0.9,1.2-1.1,3.1-0.5,4.5c0.1,0.2,0.2,0.4,0.3,0.6c0.1,0.4,0.1,0.7,0.1,1.1c0,1.3,0.2,2.5,0.6,3.7c-0.1-0.3,0-0.9,0-1.3
				s0-0.9,0-1.3c0-0.9,0.1-1.8,0.2-2.7c0.1-1.4,0.1-3.4,1.5-4.1c0.1,0,0.2-0.1,0.2-0.2C571.1,54.2,571.1,54.2,571.1,54.1"/>
		</g>
		<g>
			<defs>
				<path id="SVGID_69_" d="M534.8,62.6V43.4c0-0.6,0.4-1,1-1h5.1c6.1,0,9.6,0.5,12.2,1.7c3.4,1.6,5.2,4.7,5.2,8.9
					c0,3.9-1.5,6.8-4.4,8.5c-2.3,1.4-6,2.1-11.3,2.1h-6.8C535.2,63.6,534.8,63.2,534.8,62.6 M509.3,22.5v94.6h25.5V81.4
					c0-0.6,0.4-1,1-1h4.3c0.4,0,0.7,0.2,0.9,0.5l21.2,36.2h28.7c0,0,12.1-40.9,12.1-52.8c0-11.1-24.4-32.4-34.3-37.2
					c-6.4-3.2-14.9-4.7-26.7-4.7h-32.7V22.5z"/>
			</defs>
			<clipPath id="SVGID_70_">
				<use xlink:href="#SVGID_69_"  style="overflow:visible;"/>
			</clipPath>
			<path class="st37" d="M581.3,59.2c0.2-0.7,0.6-1.4,0.7-2.2c0.1-0.9-0.2-1.5-0.6-2.2c-0.3-0.5-0.9-0.7-1.5-0.7
				c-0.3,0-1.3-0.2-1.4,0.3c-0.1,0.3,0.2,0.5,0.3,0.7c0.3,0.4,0.3,0.9,0.5,1.4s0.4,1,0.5,1.6s0.1,1.3,0.1,1.9c0,0.8,0,1.6,0.1,2.4
				c0,0.7,0.2,2.1,0.2,2.1s0.4-0.6,0.5-1.4c0.1-0.5,0-0.9,0.1-1.4c0.2-0.8,0.3-1.5,0.6-2.3C581.3,59.3,581.3,59.3,581.3,59.2"/>
		</g>
		<g>
			<defs>
				<path id="SVGID_71_" d="M534.8,62.6V43.4c0-0.6,0.4-1,1-1h5.1c6.1,0,9.6,0.5,12.2,1.7c3.4,1.6,5.2,4.7,5.2,8.9
					c0,3.9-1.5,6.8-4.4,8.5c-2.3,1.4-6,2.1-11.3,2.1h-6.8C535.2,63.6,534.8,63.2,534.8,62.6 M509.3,22.5v94.6h25.5V81.4
					c0-0.6,0.4-1,1-1h4.3c0.4,0,0.7,0.2,0.9,0.5l21.2,36.2h28.7c0,0,12.1-40.9,12.1-52.8c0-11.1-24.4-32.4-34.3-37.2
					c-6.4-3.2-14.9-4.7-26.7-4.7h-32.7V22.5z"/>
			</defs>
			<clipPath id="SVGID_72_">
				<use xlink:href="#SVGID_71_"  style="overflow:visible;"/>
			</clipPath>
			<path class="st38" d="M569.1,65.6C569.1,65.6,569,65.6,569.1,65.6c0-1-0.1-1.9-0.4-2.8c-0.8-2.2-2.8-3.7-4.9-3.8h0.4
				c-2.5-0.3-5,2.1-5.3,5c0,0.4,0,0.8,0,1.2c-0.3,0.1-0.6,0.2-0.8,0.5c-0.4,0.6-0.1,1.5,0.5,1.9c0.3,0.2,0.7,0.3,1.1,0.2
				c0.8,1.3,2,2.2,3.3,2.3c0.6,0.1,1.3,0,1.9-0.2c0.7-0.2,1.3-0.4,1.9-0.8c0.5-0.4,0.9-0.9,1.2-1.5c0.5,0,1-0.2,1.2-0.7
				C569.8,66.6,569.6,65.9,569.1,65.6"/>
		</g>
		<g>
			<defs>
				<path id="SVGID_73_" d="M534.8,62.6V43.4c0-0.6,0.4-1,1-1h5.1c6.1,0,9.6,0.5,12.2,1.7c3.4,1.6,5.2,4.7,5.2,8.9
					c0,3.9-1.5,6.8-4.4,8.5c-2.3,1.4-6,2.1-11.3,2.1h-6.8C535.2,63.6,534.8,63.2,534.8,62.6 M509.3,22.5v94.6h25.5V81.4
					c0-0.6,0.4-1,1-1h4.3c0.4,0,0.7,0.2,0.9,0.5l21.2,36.2h28.7c0,0,12.1-40.9,12.1-52.8c0-11.1-24.4-32.4-34.3-37.2
					c-6.4-3.2-14.9-4.7-26.7-4.7h-32.7V22.5z"/>
			</defs>
			<clipPath id="SVGID_74_">
				<use xlink:href="#SVGID_73_"  style="overflow:visible;"/>
			</clipPath>
			<path class="st39" d="M569.1,65.6C569.1,65.6,569,65.6,569.1,65.6c0-1-0.1-1.9-0.4-2.8c-0.8-2.2-2.8-3.7-4.9-3.8h0.4
				c-2.5-0.3-5,2.1-5.3,5c0,0.4,0,0.8,0,1.2c-0.3,0.1-0.6,0.2-0.8,0.5c-0.4,0.6-0.1,1.5,0.5,1.9c0.3,0.2,0.7,0.3,1.1,0.2
				c0.8,1.3,2,2.2,3.3,2.3c0.6,0.1,1.3,0,1.9-0.2c0.7-0.2,1.3-0.4,1.9-0.8c0.5-0.4,0.9-0.9,1.2-1.5c0.5,0,1-0.2,1.2-0.7
				C569.8,66.6,569.6,65.9,569.1,65.6z"/>
		</g>
		<g>
			<defs>
				<path id="SVGID_75_" d="M534.8,62.6V43.4c0-0.6,0.4-1,1-1h5.1c6.1,0,9.6,0.5,12.2,1.7c3.4,1.6,5.2,4.7,5.2,8.9
					c0,3.9-1.5,6.8-4.4,8.5c-2.3,1.4-6,2.1-11.3,2.1h-6.8C535.2,63.6,534.8,63.2,534.8,62.6 M509.3,22.5v94.6h25.5V81.4
					c0-0.6,0.4-1,1-1h4.3c0.4,0,0.7,0.2,0.9,0.5l21.2,36.2h28.7c0,0,12.1-40.9,12.1-52.8c0-11.1-24.4-32.4-34.3-37.2
					c-6.4-3.2-14.9-4.7-26.7-4.7h-32.7V22.5z"/>
			</defs>
			<clipPath id="SVGID_76_">
				<use xlink:href="#SVGID_75_"  style="overflow:visible;"/>
			</clipPath>
			<path class="st40" d="M562.7,71.2c-0.6-0.1-1.4,0.5-1.9,0.9s-0.9,0.8-1.4,1.2c0.5,0.7,1.1,1.2,1.7,1.7c0.2-0.8,0.8-1.5,1.2-2.3
				C562.4,72.4,562.5,71.5,562.7,71.2"/>
		</g>
		<g>
			<defs>
				<path id="SVGID_77_" d="M534.8,62.6V43.4c0-0.6,0.4-1,1-1h5.1c6.1,0,9.6,0.5,12.2,1.7c3.4,1.6,5.2,4.7,5.2,8.9
					c0,3.9-1.5,6.8-4.4,8.5c-2.3,1.4-6,2.1-11.3,2.1h-6.8C535.2,63.6,534.8,63.2,534.8,62.6 M509.3,22.5v94.6h25.5V81.4
					c0-0.6,0.4-1,1-1h4.3c0.4,0,0.7,0.2,0.9,0.5l21.2,36.2h28.7c0,0,12.1-40.9,12.1-52.8c0-11.1-24.4-32.4-34.3-37.2
					c-6.4-3.2-14.9-4.7-26.7-4.7h-32.7V22.5z"/>
			</defs>
			<clipPath id="SVGID_78_">
				<use xlink:href="#SVGID_77_"  style="overflow:visible;"/>
			</clipPath>
			<path class="st41" d="M562.7,71.2c-0.6-0.1-1.4,0.5-1.9,0.9s-0.9,0.8-1.4,1.2c0.5,0.7,1.1,1.2,1.7,1.7c0.2-0.8,0.8-1.5,1.2-2.3
				C562.4,72.4,562.5,71.5,562.7,71.2"/>
		</g>
		<g>
			<defs>
				<path id="SVGID_79_" d="M534.8,62.6V43.4c0-0.6,0.4-1,1-1h5.1c6.1,0,9.6,0.5,12.2,1.7c3.4,1.6,5.2,4.7,5.2,8.9
					c0,3.9-1.5,6.8-4.4,8.5c-2.3,1.4-6,2.1-11.3,2.1h-6.8C535.2,63.6,534.8,63.2,534.8,62.6 M509.3,22.5v94.6h25.5V81.4
					c0-0.6,0.4-1,1-1h4.3c0.4,0,0.7,0.2,0.9,0.5l21.2,36.2h28.7c0,0,12.1-40.9,12.1-52.8c0-11.1-24.4-32.4-34.3-37.2
					c-6.4-3.2-14.9-4.7-26.7-4.7h-32.7V22.5z"/>
			</defs>
			<clipPath id="SVGID_80_">
				<use xlink:href="#SVGID_79_"  style="overflow:visible;"/>
			</clipPath>
			<path class="st42" d="M576.1,86.3c0.8,0,1.6,0,2.4-0.1c0.8-0.1,1.5-0.3,2.3-0.3s1.6,0.1,2.3,0.5c0.2,0.1,0.4,0.2,0.5,0.4
				c0.4,0.5,0,1.2-0.4,1.6c-1,0.9-2.4,1.2-3.7,1.4s-2.7,0.2-4,0.6c-0.1-1.2,0-2.4,0.2-3.6"/>
		</g>
		<g>
			<defs>
				<path id="SVGID_81_" d="M534.8,62.6V43.4c0-0.6,0.4-1,1-1h5.1c6.1,0,9.6,0.5,12.2,1.7c3.4,1.6,5.2,4.7,5.2,8.9
					c0,3.9-1.5,6.8-4.4,8.5c-2.3,1.4-6,2.1-11.3,2.1h-6.8C535.2,63.6,534.8,63.2,534.8,62.6 M509.3,22.5v94.6h25.5V81.4
					c0-0.6,0.4-1,1-1h4.3c0.4,0,0.7,0.2,0.9,0.5l21.2,36.2h28.7c0,0,12.1-40.9,12.1-52.8c0-11.1-24.4-32.4-34.3-37.2
					c-6.4-3.2-14.9-4.7-26.7-4.7h-32.7V22.5z"/>
			</defs>
			<clipPath id="SVGID_82_">
				<use xlink:href="#SVGID_81_"  style="overflow:visible;"/>
			</clipPath>
			<path class="st43" d="M576.1,86.3c0.8,0,1.6,0,2.4-0.1c0.8-0.1,1.5-0.3,2.3-0.3s1.6,0.1,2.3,0.5c0.2,0.1,0.4,0.2,0.5,0.4
				c0.4,0.5,0,1.2-0.4,1.6c-1,0.9-2.4,1.2-3.7,1.4s-2.7,0.2-4,0.6c-0.1-1.2,0-2.4,0.2-3.6"/>
		</g>
		<g>
			<defs>
				<path id="SVGID_83_" d="M534.8,62.6V43.4c0-0.6,0.4-1,1-1h5.1c6.1,0,9.6,0.5,12.2,1.7c3.4,1.6,5.2,4.7,5.2,8.9
					c0,3.9-1.5,6.8-4.4,8.5c-2.3,1.4-6,2.1-11.3,2.1h-6.8C535.2,63.6,534.8,63.2,534.8,62.6 M509.3,22.5v94.6h25.5V81.4
					c0-0.6,0.4-1,1-1h4.3c0.4,0,0.7,0.2,0.9,0.5l21.2,36.2h28.7c0,0,12.1-40.9,12.1-52.8c0-11.1-24.4-32.4-34.3-37.2
					c-6.4-3.2-14.9-4.7-26.7-4.7h-32.7V22.5z"/>
			</defs>
			<clipPath id="SVGID_84_">
				<use xlink:href="#SVGID_83_"  style="overflow:visible;"/>
			</clipPath>
			<path class="st44" d="M560,72.7c-3.5,4.7-6.5,10.5-7.2,16.3c-0.1,0.6-0.1,1.3,0.1,1.9c0.3,0.8,1.1,1.3,1.8,1.4
				c0.8,0.2,22.5-0.3,21.3-1l-0.1-6.1c-2.1-0.1-11,1.4-14,1c-1-0.1-2.6,0.5-3.1-0.4c-0.4-0.5-0.1-3.1-0.2-3.8
				c-0.4-3.8,1.1-5.6,1.6-9.4"/>
		</g>
		<g>
			<defs>
				<path id="SVGID_85_" d="M534.8,62.6V43.4c0-0.6,0.4-1,1-1h5.1c6.1,0,9.6,0.5,12.2,1.7c3.4,1.6,5.2,4.7,5.2,8.9
					c0,3.9-1.5,6.8-4.4,8.5c-2.3,1.4-6,2.1-11.3,2.1h-6.8C535.2,63.6,534.8,63.2,534.8,62.6 M509.3,22.5v94.6h25.5V81.4
					c0-0.6,0.4-1,1-1h4.3c0.4,0,0.7,0.2,0.9,0.5l21.2,36.2h28.7c0,0,12.1-40.9,12.1-52.8c0-11.1-24.4-32.4-34.3-37.2
					c-6.4-3.2-14.9-4.7-26.7-4.7h-32.7V22.5z"/>
			</defs>
			<clipPath id="SVGID_86_">
				<use xlink:href="#SVGID_85_"  style="overflow:visible;"/>
			</clipPath>
			<path class="st45" d="M560,72.7c-3.5,4.7-6.5,10.5-7.2,16.3c-0.1,0.6-0.1,1.3,0.1,1.9c0.3,0.8,1.1,1.3,1.8,1.4
				c0.8,0.2,22.5-0.3,21.3-1l-0.1-6.1c-2.1-0.1-11,1.4-14,1c-1-0.1-2.6,0.5-3.1-0.4c-0.4-0.5-0.1-3.1-0.2-3.8
				c-0.4-3.8,1.1-5.6,1.6-9.4"/>
		</g>
		<g>
			<defs>
				<path id="SVGID_87_" d="M534.8,62.6V43.4c0-0.6,0.4-1,1-1h5.1c6.1,0,9.6,0.5,12.2,1.7c3.4,1.6,5.2,4.7,5.2,8.9
					c0,3.9-1.5,6.8-4.4,8.5c-2.3,1.4-6,2.1-11.3,2.1h-6.8C535.2,63.6,534.8,63.2,534.8,62.6 M509.3,22.5v94.6h25.5V81.4
					c0-0.6,0.4-1,1-1h4.3c0.4,0,0.7,0.2,0.9,0.5l21.2,36.2h28.7c0,0,12.1-40.9,12.1-52.8c0-11.1-24.4-32.4-34.3-37.2
					c-6.4-3.2-14.9-4.7-26.7-4.7h-32.7V22.5z"/>
			</defs>
			<clipPath id="SVGID_88_">
				<use xlink:href="#SVGID_87_"  style="overflow:visible;"/>
			</clipPath>
			<path class="st46" d="M569.2,85.6c0.2-0.1,0.4,0,0.5,0.1s0.2,0.4,0.2,0.6c0.1,1.3-0.3,2.6-0.8,3.8l-1.7,4.5
				c-0.1,0.1-0.1,0.3-0.1,0.4c0.1,0.2,0.3,0.3,0.5,0.3c0.6,0.3,1,0.8,1.2,1.4c-1.2-0.2-2.4-0.5-3.6-0.9c-0.1,0-0.2-0.1-0.3-0.2
				c-0.2-0.2-0.1-0.5-0.1-0.8l1.8-6.2c0.2-0.6,0.3-1.2,0.3-1.8c0-0.6-0.3-1.3-0.9-1.5"/>
		</g>
		<g>
			<defs>
				<path id="SVGID_89_" d="M534.8,62.6V43.4c0-0.6,0.4-1,1-1h5.1c6.1,0,9.6,0.5,12.2,1.7c3.4,1.6,5.2,4.7,5.2,8.9
					c0,3.9-1.5,6.8-4.4,8.5c-2.3,1.4-6,2.1-11.3,2.1h-6.8C535.2,63.6,534.8,63.2,534.8,62.6 M509.3,22.5v94.6h25.5V81.4
					c0-0.6,0.4-1,1-1h4.3c0.4,0,0.7,0.2,0.9,0.5l21.2,36.2h28.7c0,0,12.1-40.9,12.1-52.8c0-11.1-24.4-32.4-34.3-37.2
					c-6.4-3.2-14.9-4.7-26.7-4.7h-32.7V22.5z"/>
			</defs>
			<clipPath id="SVGID_90_">
				<use xlink:href="#SVGID_89_"  style="overflow:visible;"/>
			</clipPath>
			<path class="st47" d="M569.2,85.6c0.2-0.1,0.4,0,0.5,0.1s0.2,0.4,0.2,0.6c0.1,1.3-0.3,2.6-0.8,3.8l-1.7,4.5
				c-0.1,0.1-0.1,0.3-0.1,0.4c0.1,0.2,0.3,0.3,0.5,0.3c0.6,0.3,1,0.8,1.2,1.4c-1.2-0.2-2.4-0.5-3.6-0.9c-0.1,0-0.2-0.1-0.3-0.2
				c-0.2-0.2-0.1-0.5-0.1-0.8l1.8-6.2c0.2-0.6,0.3-1.2,0.3-1.8c0-0.6-0.3-1.3-0.9-1.5"/>
		</g>
		<g>
			<defs>
				<path id="SVGID_91_" d="M534.8,62.6V43.4c0-0.6,0.4-1,1-1h5.1c6.1,0,9.6,0.5,12.2,1.7c3.4,1.6,5.2,4.7,5.2,8.9
					c0,3.9-1.5,6.8-4.4,8.5c-2.3,1.4-6,2.1-11.3,2.1h-6.8C535.2,63.6,534.8,63.2,534.8,62.6 M509.3,22.5v94.6h25.5V81.4
					c0-0.6,0.4-1,1-1h4.3c0.4,0,0.7,0.2,0.9,0.5l21.2,36.2h28.7c0,0,12.1-40.9,12.1-52.8c0-11.1-24.4-32.4-34.3-37.2
					c-6.4-3.2-14.9-4.7-26.7-4.7h-32.7V22.5z"/>
			</defs>
			<clipPath id="SVGID_92_">
				<use xlink:href="#SVGID_91_"  style="overflow:visible;"/>
			</clipPath>
			<path class="st48" d="M563.4,85.5c1.3,0.3,0.5,5.5,0,6.6c-0.4,0.8-0.7,1.7-0.8,2.6c0,0.2-0.1,0.5,0,0.7c0.2,0.8,1.3,1.3,1.1,2.1
				c-1.2,0-2.3-0.3-3.4-0.8c-0.3-0.2-0.6-0.4-0.8-0.7c-0.2-0.5,0.1-1,0.4-1.5c1.7-2.8,1.9-6.4,0.7-9.4c1,0.1,2,0.3,3,0.4"/>
		</g>
		<g>
			<defs>
				<path id="SVGID_93_" d="M534.8,62.6V43.4c0-0.6,0.4-1,1-1h5.1c6.1,0,9.6,0.5,12.2,1.7c3.4,1.6,5.2,4.7,5.2,8.9
					c0,3.9-1.5,6.8-4.4,8.5c-2.3,1.4-6,2.1-11.3,2.1h-6.8C535.2,63.6,534.8,63.2,534.8,62.6 M509.3,22.5v94.6h25.5V81.4
					c0-0.6,0.4-1,1-1h4.3c0.4,0,0.7,0.2,0.9,0.5l21.2,36.2h28.7c0,0,12.1-40.9,12.1-52.8c0-11.1-24.4-32.4-34.3-37.2
					c-6.4-3.2-14.9-4.7-26.7-4.7h-32.7V22.5z"/>
			</defs>
			<clipPath id="SVGID_94_">
				<use xlink:href="#SVGID_93_"  style="overflow:visible;"/>
			</clipPath>
			<path class="st49" d="M563.4,85.5c1.3,0.3,0.5,5.5,0,6.6c-0.4,0.8-0.7,1.7-0.8,2.6c0,0.2-0.1,0.5,0,0.7c0.2,0.8,1.3,1.3,1.1,2.1
				c-1.2,0-2.3-0.3-3.4-0.8c-0.3-0.2-0.6-0.4-0.8-0.7c-0.2-0.5,0.1-1,0.4-1.5c1.7-2.8,1.9-6.4,0.7-9.4c1,0.1,2,0.3,3,0.4"/>
		</g>
		<g>
			<defs>
				<path id="SVGID_95_" d="M534.8,62.6V43.4c0-0.6,0.4-1,1-1h5.1c6.1,0,9.6,0.5,12.2,1.7c3.4,1.6,5.2,4.7,5.2,8.9
					c0,3.9-1.5,6.8-4.4,8.5c-2.3,1.4-6,2.1-11.3,2.1h-6.8C535.2,63.6,534.8,63.2,534.8,62.6 M509.3,22.5v94.6h25.5V81.4
					c0-0.6,0.4-1,1-1h4.3c0.4,0,0.7,0.2,0.9,0.5l21.2,36.2h28.7c0,0,12.1-40.9,12.1-52.8c0-11.1-24.4-32.4-34.3-37.2
					c-6.4-3.2-14.9-4.7-26.7-4.7h-32.7V22.5z"/>
			</defs>
			<clipPath id="SVGID_96_">
				<use xlink:href="#SVGID_95_"  style="overflow:visible;"/>
			</clipPath>
			<path class="st50" d="M562.7,71.2c-3.6,4.6-5.5,10-5.5,15.1c2.9,0.9,6,1.2,9,0.9c1.7-0.2,3.6,0.3,5.3-0.5c0.3-0.9,0-1.9-0.3-2.8
				c-1.2-3.2-2.6-6.3-4.3-9.2c-0.9-1.6-1.7-1.6-1.9-3.5C564.3,72.1,562.9,71.6,562.7,71.2"/>
		</g>
		<g>
			<defs>
				<path id="SVGID_97_" d="M534.8,62.6V43.4c0-0.6,0.4-1,1-1h5.1c6.1,0,9.6,0.5,12.2,1.7c3.4,1.6,5.2,4.7,5.2,8.9
					c0,3.9-1.5,6.8-4.4,8.5c-2.3,1.4-6,2.1-11.3,2.1h-6.8C535.2,63.6,534.8,63.2,534.8,62.6 M509.3,22.5v94.6h25.5V81.4
					c0-0.6,0.4-1,1-1h4.3c0.4,0,0.7,0.2,0.9,0.5l21.2,36.2h28.7c0,0,12.1-40.9,12.1-52.8c0-11.1-24.4-32.4-34.3-37.2
					c-6.4-3.2-14.9-4.7-26.7-4.7h-32.7V22.5z"/>
			</defs>
			<clipPath id="SVGID_98_">
				<use xlink:href="#SVGID_97_"  style="overflow:visible;"/>
			</clipPath>
			<path class="st51" d="M562.7,71.2c-3.6,4.6-5.5,10-5.5,15.1c2.9,0.9,6,1.2,9,0.9c1.7-0.2,3.6,0.3,5.3-0.5c0.3-0.9,0-1.9-0.3-2.8
				c-1.2-3.2-2.6-6.3-4.3-9.2c-0.9-1.6-1.7-1.6-1.9-3.5C564.3,72.1,562.9,71.6,562.7,71.2"/>
		</g>
		<g>
			<defs>
				<path id="SVGID_99_" d="M534.8,62.6V43.4c0-0.6,0.4-1,1-1h5.1c6.1,0,9.6,0.5,12.2,1.7c3.4,1.6,5.2,4.7,5.2,8.9
					c0,3.9-1.5,6.8-4.4,8.5c-2.3,1.4-6,2.1-11.3,2.1h-6.8C535.2,63.6,534.8,63.2,534.8,62.6 M509.3,22.5v94.6h25.5V81.4
					c0-0.6,0.4-1,1-1h4.3c0.4,0,0.7,0.2,0.9,0.5l21.2,36.2h28.7c0,0,12.1-40.9,12.1-52.8c0-11.1-24.4-32.4-34.3-37.2
					c-6.4-3.2-14.9-4.7-26.7-4.7h-32.7V22.5z"/>
			</defs>
			<clipPath id="SVGID_100_">
				<use xlink:href="#SVGID_99_"  style="overflow:visible;"/>
			</clipPath>
			<path class="st52" d="M562.3,71.2c-1.4,0.6-2.7,1.6-3.6,2.9c-0.6,0.8-1.1,1.9-0.8,2.9c0.3,1.4,1.9,2.1,3.3,2.4
				c2.5,0.5,5.1,0.3,7.5-0.5c0.4-0.2,0.9-0.6,0.7-1c-0.1-0.1-0.3-0.2-0.4-0.3c-1.9-0.5-4-0.2-6-0.3c-0.5,0-1.1-0.1-1.6-0.4
				s-0.8-0.8-0.9-1.3c0-0.4,0.2-0.8,0.4-1.2C561.6,73.5,561.8,72.2,562.3,71.2"/>
		</g>
		<g>
			<defs>
				<path id="SVGID_101_" d="M534.8,62.6V43.4c0-0.6,0.4-1,1-1h5.1c6.1,0,9.6,0.5,12.2,1.7c3.4,1.6,5.2,4.7,5.2,8.9
					c0,3.9-1.5,6.8-4.4,8.5c-2.3,1.4-6,2.1-11.3,2.1h-6.8C535.2,63.6,534.8,63.2,534.8,62.6 M509.3,22.5v94.6h25.5V81.4
					c0-0.6,0.4-1,1-1h4.3c0.4,0,0.7,0.2,0.9,0.5l21.2,36.2h28.7c0,0,12.1-40.9,12.1-52.8c0-11.1-24.4-32.4-34.3-37.2
					c-6.4-3.2-14.9-4.7-26.7-4.7h-32.7V22.5z"/>
			</defs>
			<clipPath id="SVGID_102_">
				<use xlink:href="#SVGID_101_"  style="overflow:visible;"/>
			</clipPath>
			<path class="st53" d="M562.3,71.2c-1.4,0.6-2.7,1.6-3.6,2.9c-0.6,0.8-1.1,1.9-0.8,2.9c0.3,1.4,1.9,2.1,3.3,2.4
				c2.5,0.5,5.1,0.3,7.5-0.5c0.4-0.2,0.9-0.6,0.7-1c-0.1-0.1-0.3-0.2-0.4-0.3c-1.9-0.5-4-0.2-6-0.3c-0.5,0-1.1-0.1-1.6-0.4
				s-0.8-0.8-0.9-1.3c0-0.4,0.2-0.8,0.4-1.2C561.6,73.5,561.8,72.2,562.3,71.2"/>
		</g>
		<g>
			<defs>
				<path id="SVGID_103_" d="M534.8,62.6V43.4c0-0.6,0.4-1,1-1h5.1c6.1,0,9.6,0.5,12.2,1.7c3.4,1.6,5.2,4.7,5.2,8.9
					c0,3.9-1.5,6.8-4.4,8.5c-2.3,1.4-6,2.1-11.3,2.1h-6.8C535.2,63.6,534.8,63.2,534.8,62.6 M509.3,22.5v94.6h25.5V81.4
					c0-0.6,0.4-1,1-1h4.3c0.4,0,0.7,0.2,0.9,0.5l21.2,36.2h28.7c0,0,12.1-40.9,12.1-52.8c0-11.1-24.4-32.4-34.3-37.2
					c-6.4-3.2-14.9-4.7-26.7-4.7h-32.7V22.5z"/>
			</defs>
			<clipPath id="SVGID_104_">
				<use xlink:href="#SVGID_103_"  style="overflow:visible;"/>
			</clipPath>
			<path class="st54" d="M583.7,84.2c-1.3,3.3-2.4,4.5-4.2,5.3s-13.8-4.9-15.8-7.8c-0.1-0.1-2,3.5-2.8,4.1
				c3.5,5.9,14.7,12.6,18.9,12.6c7.7-0.1,9.5-3.6,11.4-8.7c1.8-5,0.3-11-2.2-13.2c-2-1.7-7-3.8-10.2-3.9"/>
		</g>
		<g>
			<defs>
				<path id="SVGID_105_" d="M534.8,62.6V43.4c0-0.6,0.4-1,1-1h5.1c6.1,0,9.6,0.5,12.2,1.7c3.4,1.6,5.2,4.7,5.2,8.9
					c0,3.9-1.5,6.8-4.4,8.5c-2.3,1.4-6,2.1-11.3,2.1h-6.8C535.2,63.6,534.8,63.2,534.8,62.6 M509.3,22.5v94.6h25.5V81.4
					c0-0.6,0.4-1,1-1h4.3c0.4,0,0.7,0.2,0.9,0.5l21.2,36.2h28.7c0,0,12.1-40.9,12.1-52.8c0-11.1-24.4-32.4-34.3-37.2
					c-6.4-3.2-14.9-4.7-26.7-4.7h-32.7V22.5z"/>
			</defs>
			<clipPath id="SVGID_106_">
				<use xlink:href="#SVGID_105_"  style="overflow:visible;"/>
			</clipPath>
			<path class="st55" d="M583.7,84.2c-1.3,3.3-2.4,4.5-4.2,5.3s-13.8-4.9-15.8-7.8c-0.1-0.1-2,3.5-2.8,4.1
				c3.5,5.9,14.7,12.6,18.9,12.6c7.7-0.1,9.5-3.6,11.4-8.7c1.8-5,0.3-11-2.2-13.2c-2-1.7-7-3.8-10.2-3.9"/>
		</g>
		<g>
			<defs>
				<path id="SVGID_107_" d="M534.8,62.6V43.4c0-0.6,0.4-1,1-1h5.1c6.1,0,9.6,0.5,12.2,1.7c3.4,1.6,5.2,4.7,5.2,8.9
					c0,3.9-1.5,6.8-4.4,8.5c-2.3,1.4-6,2.1-11.3,2.1h-6.8C535.2,63.6,534.8,63.2,534.8,62.6 M509.3,22.5v94.6h25.5V81.4
					c0-0.6,0.4-1,1-1h4.3c0.4,0,0.7,0.2,0.9,0.5l21.2,36.2h28.7c0,0,12.1-40.9,12.1-52.8c0-11.1-24.4-32.4-34.3-37.2
					c-6.4-3.2-14.9-4.7-26.7-4.7h-32.7V22.5z"/>
			</defs>
			<clipPath id="SVGID_108_">
				<use xlink:href="#SVGID_107_"  style="overflow:visible;"/>
			</clipPath>
			<path class="st56" d="M563.1,82.7c-1.2-1.3-2.7-2.4-4.3-3.3c-0.4-0.2-1-0.5-1.4-0.2c-0.2,0.2-0.4,0.5-0.4,0.8
				c0,0.7,0.4,1.4,0.8,1.9c1,1.3,2.2,2.3,3.5,3.2c0.5-0.8,1-1.5,1.5-2.2"/>
		</g>
		<g>
			<defs>
				<path id="SVGID_109_" d="M534.8,62.6V43.4c0-0.6,0.4-1,1-1h5.1c6.1,0,9.6,0.5,12.2,1.7c3.4,1.6,5.2,4.7,5.2,8.9
					c0,3.9-1.5,6.8-4.4,8.5c-2.3,1.4-6,2.1-11.3,2.1h-6.8C535.2,63.6,534.8,63.2,534.8,62.6 M509.3,22.5v94.6h25.5V81.4
					c0-0.6,0.4-1,1-1h4.3c0.4,0,0.7,0.2,0.9,0.5l21.2,36.2h28.7c0,0,12.1-40.9,12.1-52.8c0-11.1-24.4-32.4-34.3-37.2
					c-6.4-3.2-14.9-4.7-26.7-4.7h-32.7V22.5z"/>
			</defs>
			<clipPath id="SVGID_110_">
				<use xlink:href="#SVGID_109_"  style="overflow:visible;"/>
			</clipPath>
			<path class="st57" d="M563.1,82.7c-1.2-1.3-2.7-2.4-4.3-3.3c-0.4-0.2-1-0.5-1.4-0.2c-0.2,0.2-0.4,0.5-0.4,0.8
				c0,0.7,0.4,1.4,0.8,1.9c1,1.3,2.2,2.3,3.5,3.2c0.5-0.8,1-1.5,1.5-2.2"/>
		</g>
		<g>
			<defs>
				<path id="SVGID_111_" d="M534.8,62.6V43.4c0-0.6,0.4-1,1-1h5.1c6.1,0,9.6,0.5,12.2,1.7c3.4,1.6,5.2,4.7,5.2,8.9
					c0,3.9-1.5,6.8-4.4,8.5c-2.3,1.4-6,2.1-11.3,2.1h-6.8C535.2,63.6,534.8,63.2,534.8,62.6 M509.3,22.5v94.6h25.5V81.4
					c0-0.6,0.4-1,1-1h4.3c0.4,0,0.7,0.2,0.9,0.5l21.2,36.2h28.7c0,0,12.1-40.9,12.1-52.8c0-11.1-24.4-32.4-34.3-37.2
					c-6.4-3.2-14.9-4.7-26.7-4.7h-32.7V22.5z"/>
			</defs>
			<clipPath id="SVGID_112_">
				<use xlink:href="#SVGID_111_"  style="overflow:visible;"/>
			</clipPath>
			<path class="st58" d="M569.7,65c0.1-2.1-1.3-4.6-3-5.5c-1.6-0.9-3.6-0.8-5.3,0c-0.9,0.5-1.8,1.1-2.3,2.1c-0.6,1.1-0.9,2.5-1,3.8
				c2.8-0.2,6.3,0.1,9.1-0.1C568.1,65.2,569.1,65.3,569.7,65"/>
		</g>
	</g>
</g>
<g>
	<polygon class="st59" points="753.9,213.6 795,213.6 795,198.8 771.4,198.8 771.4,188.6 790.5,188.6 790.5,174.7 771.4,174.7 
		771.4,166.9 794,166.9 794,152.1 753.9,152.1 	"/>
	<path class="st59" d="M804.3,209.2c6.2,3,14.1,4.4,20.4,4.4c14.3,0,24.1-7.6,24.1-20c0-10.4-6.7-15.1-16.3-18.5
		c-7.4-2.6-12.2-2.6-12.2-6.6c0-2.7,2.2-3.8,5.4-3.8c4.3,0,12.5,2,19.9,6.1v-16.1c-5.8-2.9-13.7-4.5-20-4.5c-13.7,0-23,7.6-23,19.5
		c0,9.9,6.4,14.5,15.8,17.8c7.8,2.7,12.7,2.7,12.7,7.1c0,3.1-2.5,4.4-6.1,4.4c-4.3,0-12.9-1.8-20.6-6.3L804.3,209.2L804.3,209.2z"/>
	<path class="st59" d="M192.6,179.8v-13.7h2.6c4.4,0,6.6,0.3,8.1,1.1c2.2,1,3.4,3.1,3.4,5.9c0,2.7-1.1,4.6-3.1,5.7
		c-1.5,0.8-4.1,1.1-7.9,1.1L192.6,179.8L192.6,179.8z M175.1,213.6h17.5V193h2.8c8.4,0,15-1.3,19.7-4.1c6.1-3.6,9.2-9.1,9.2-16.2
		c0-8.6-4.3-14.2-10.7-17.3c-4.6-2.3-10.6-3.2-18.5-3.2h-20L175.1,213.6L175.1,213.6z"/>
	<path class="st59" d="M252,179.8v-13.7h2.6c4.4,0,6.6,0.3,8.1,1.1c2.2,1,3.4,3.1,3.4,5.9c0,2.7-1.1,4.6-3.1,5.7
		c-1.5,0.8-4.1,1.1-7.9,1.1L252,179.8L252,179.8z M234.5,213.6H252V193h2.8c8.4,0,15-1.3,19.7-4.1c6.1-3.6,9.2-9.1,9.2-16.2
		c0-8.6-4.3-14.2-10.7-17.3c-4.6-2.3-10.6-3.2-18.5-3.2h-20L234.5,213.6L234.5,213.6z"/>
	<rect x="631.5" y="152" class="st59" width="17.5" height="61.5"/>
	<rect x="726.1" y="152" class="st59" width="17.5" height="61.5"/>
	<path class="st59" d="M116.6,181.9c0-8.9,6.7-16,15.4-16c8.7,0,15.4,7.1,15.4,16c0,8.9-6.7,16-15.4,16
		C123.3,197.9,116.6,190.8,116.6,181.9z M99.1,181.9c0,17.8,14.4,31.7,32.9,31.7c18.5,0,32.9-13.9,32.9-31.7
		c0-17.8-14.4-31.7-32.9-31.7C113.4,150.2,99.1,164.1,99.1,181.9z"/>
	<path class="st59" d="M308.6,181.9c0-8.9,6.7-16,15.4-16c8.7,0,15.4,7.1,15.4,16c0,8.9-6.7,16-15.4,16
		C315.4,197.9,308.6,190.8,308.6,181.9z M291.1,181.9c0,17.8,14.4,31.7,32.9,31.7c18.5,0,32.9-13.9,32.9-31.7
		c0-17.8-14.4-31.7-32.9-31.7C305.5,150.2,291.1,164.1,291.1,181.9z"/>
	<path class="st59" d="M384.7,178.2V166h3.2c4,0,6,0.3,7.5,1c1.8,0.8,3,2.5,3,5.1c0,2.3-0.8,3.9-2.5,4.8c-1.4,0.8-3.7,1.3-6.9,1.3
		H384.7z M367.2,213.6h17.5v-23.4h2.7l13.7,23.4h19.8l-16.3-25.8c7.6-3.2,11.3-9,11.3-16.6c0-8-4-13.2-9.9-16.1
		c-4.2-2.1-9.8-3.1-17.2-3.1h-21.5V213.6z"/>
	<polygon class="st59" points="447.8,213.6 465.3,213.6 465.3,166.9 484.9,166.9 484.9,152.1 428.3,152.1 428.3,166.9 447.8,166.9 	
		"/>
	<polygon class="st59" points="678.8,213.6 696.3,213.6 696.3,166.9 715.9,166.9 715.9,152.1 659.3,152.1 659.3,166.9 678.8,166.9 	
		"/>
	<path class="st59" d="M552,151.1h-16.8v31.4c0,6-0.9,9.9-2.9,12.3c-1.8,2.2-4.6,3.6-8.4,3.6c-4.2,0-7.2-1.7-8.9-4.1
		c-1.7-2.4-2.4-5.9-2.4-11.8v-31.4h-17.5v32.4c0,9,1.6,15.5,4.8,20.1c4.7,6.5,13.5,10,23.6,10c10.3,0,18.7-3.7,23.3-9.8
		c3.4-4.5,5.2-11,5.2-20.3V151.1z"/>
	<path class="st59" d="M604.9,213.6h16.4v-61.5h-16.8v19.7c0,5.2,0.1,10.5,0.2,15.6l-0.2,0.1c-3.1-4.4-6-8.6-9.4-13.2l-16.3-22.3
		h-16.4v61.5h16.8v-19.7c0-5.2-0.1-10.5-0.2-15.6l0.2-0.1c3.1,4.4,6,8.6,9.4,13.2L604.9,213.6z"/>
</g>
</svg>
