<?xml version="1.0" encoding="utf-8"?>
<!-- Generator: Adobe Illustrator 25.3.1, SVG Export Plug-In . SVG Version: 6.00 Build 0)  -->
<svg version="1.1" id="Layer_1" xmlns="http://www.w3.org/2000/svg" xmlns:xlink="http://www.w3.org/1999/xlink" x="0px" y="0px"
	 viewBox="0 0 527.4 433.4" style="enable-background:new 0 0 527.4 433.4;" xml:space="preserve">
<style type="text/css">
	.st0{fill:#FFFFFF;}
</style>
<path class="st0" d="M192,167.1c-24.1-34.4-18.9-73.5,12.6-104.4c40.5-40.9,102.7-41.3,133.7,9.7c23.8,38,15.1,90.3-16.7,120.1
	c-15.3,14.8-32.8,21.4-50.4,21.4C241.7,213.8,211.9,195.4,192,167.1 M194.9,26.2c-60.7,50.6-70.3,116.6-19.3,172
	c41.5,46.4,105.1,66.6,153.8,31.9c60.7-41.3,75.8-134.8,23.9-192.8C331.3,12,300.2,0,269.2,0C242.3,0,215.5,9.1,194.9,26.2"/>
<path class="st0" d="M8.8,289.9c4.1-4.7,9.5-8.3,14.2-8.3h7v27.5h42.1v12.4c0,6.3-5.6,14.4-18,14.4H30v47.5c0,15.8,7,21.8,19.1,21.8
	c9.7,0,17.1-1.3,21.8-4.3h1.1v10.8c0,12.4-9,20.3-26.6,20.3C14.9,432.1,0,415.4,0,387v-73C0,302.1,2.3,297.6,8.8,289.9"/>
<path class="st0" d="M144.9,306.4c36.5,0,57.4,29.3,57.4,61.5c0,36.5-20.9,65.5-60.1,65.5c-36.5,0-57.4-29.1-57.4-61.3
	C84.8,335.7,105.7,306.4,144.9,306.4 M142.2,333.4c-17.3,0-26.1,14.4-26.1,34.5c0,24.1,8.8,38.5,28.8,38.5
	c17.6,0,26.1-14.4,26.1-34.2C171,347.8,162,333.4,142.2,333.4"/>
<path class="st0" d="M289.6,338.6c-4.5-1.8-9.7-3.6-17.6-3.6c-13.5,0-20.9,7.4-20.9,25.9v69.8h-8.3c-13.5,0-22.1-6.8-22.1-19.4
	v-55.9c0-24.3,12.8-47.5,44.8-47.5c18.7,0,25.2,10.6,25.2,19.8v10.8H289.6z"/>
<path class="st0" d="M362.7,433.4c-30,0-53.6-19.8-53.6-55.2v-69.2h5.6c17.3,0,25,7.4,25,21.6v44.6c0,22.3,10.8,31.3,24.6,31.3
	c12.4,0,21.2-8.6,21.2-29.3v-68.3h5.4c17.6,0,25,7.4,25,21.6v45.5C415.8,414.1,398,433.4,362.7,433.4"/>
<path class="st0" d="M476.7,433.4c-22.3,0-39-11.5-39-23.9v-13.7h1.1c6.5,6.1,22.1,11.5,36.5,11.5c14.9,0,22.1-4.3,22.1-13.3
	c0-7-4.3-10.4-25.2-13.3c-25.7-3.6-38.1-13.7-38.1-32.2c0-22.7,20.5-42.1,51.6-42.1c27.5,0,38.7,14.2,38.7,25.9v11.5h-1.1
	c-6.3-6.3-20.3-11.3-34.7-11.3c-18.5,0-24.3,5.6-24.3,13.5c0,6.1,3.6,8.6,24.3,11.9c25.2,4.1,38.7,15.1,38.7,34.5
	C527.4,418.1,509.4,433.4,476.7,433.4"/>
<path class="st0" d="M385.4,309.1v68.3c0,20.7-8.8,29.3-21.2,29.3c-13.7,0-24.6-9-24.6-31.3v-44.6c0-14.2-7.7-21.6-25-21.6h-5.6
	v69.2c0,35.4,23.7,55.2,53.6,55.2c35.4,0,53.2-19.4,53.2-57.2v-45.5c0-14.2-7.4-21.6-25-21.6H385.4z M220.7,355.5v55.9
	c0,12.6,8.6,19.4,22.1,19.4h8.3v-69.8c0-18.5,7.4-25.9,20.9-25.9c7.9,0,13.1,1.8,17.6,3.6h1.1v-10.8c0-9.2-6.5-19.8-25.2-19.8
	C233.5,308,220.7,331.2,220.7,355.5 M116.1,367.9c0-20,8.8-34.5,26.1-34.5c19.8,0,28.8,14.4,28.8,38.7c0,19.8-8.6,34.2-26.1,34.2
	C124.9,406.4,116.1,392,116.1,367.9 M84.8,372.2c0,32.2,20.9,61.3,57.4,61.3c39.2,0,60.1-29.1,60.1-65.5c0-32.2-21-61.5-57.4-61.5
	C105.7,306.4,84.8,335.7,84.8,372.2 M434.2,348.5c0,18.5,12.4,28.6,38.1,32.2c20.9,2.9,25.2,6.3,25.2,13.3c0,9-7.2,13.3-22.1,13.3
	c-14.4,0-30-5.4-36.5-11.5h-1.1v13.7c0,12.4,16.7,23.9,39,23.9c32.7,0,50.7-15.3,50.7-41c0-19.4-13.5-30.4-38.7-34.5
	c-20.7-3.4-24.3-5.9-24.3-11.9c0-7.9,5.9-13.5,24.3-13.5c14.4,0,28.4,5,34.7,11.3h1.1v-11.5c0-11.7-11.3-25.9-38.7-25.9
	C454.7,306.4,434.2,325.8,434.2,348.5 M23,281.6c-4.7,0-10.1,3.6-14.2,8.3C2.3,297.6,0,302.1,0,314.1v73c0,28.4,14.9,45.1,45.5,45.1
	c17.6,0,26.6-7.9,26.6-20.3V401H71c-4.7,2.9-12.2,4.3-21.9,4.3c-12.2,0-19.1-6.1-19.1-21.8v-47.5h24.1c12.4,0,18-8.1,18-14.4v-12.4
	H30v-27.5H23z"/>
</svg>
